<svg width="49" height="48" viewBox="0 0 49 48" fill="none" xmlns="http://www.w3.org/2000/svg">
<rect x="0.581421" width="48" height="48" rx="5" fill="#FFAA00" fill-opacity="0.05"/>
<path d="M11.9814 23.7999C12.0865 23.8787 12.206 23.936 12.3332 23.9686C12.4605 24.0012 12.5928 24.0084 12.7228 23.9898C12.8528 23.9712 12.9779 23.9272 13.0909 23.8603C13.2039 23.7934 13.3026 23.7049 13.3814 23.5999C13.9869 22.7926 14.772 22.1374 15.6745 21.6861C16.5771 21.2348 17.5723 20.9999 18.5814 20.9999C19.5905 20.9999 20.5857 21.2348 21.4883 21.6861C22.3909 22.1374 23.176 22.7926 23.7814 23.5999C23.9407 23.8118 24.1777 23.9519 24.4403 23.9891C24.7028 24.0264 24.9694 23.9579 25.1814 23.7986C25.257 23.7424 25.324 23.6754 25.3802 23.5999C25.9856 22.7926 26.7707 22.1374 27.6733 21.6861C28.5758 21.2348 29.5711 20.9999 30.5802 20.9999C31.5893 20.9999 32.5845 21.2348 33.4871 21.6861C34.3896 22.1374 35.1747 22.7926 35.7802 23.5999C35.9395 23.812 36.1765 23.9522 36.4392 23.9896C36.7019 24.027 36.9686 23.9585 37.1808 23.7992C37.393 23.6399 37.5332 23.4029 37.5706 23.1402C37.608 22.8775 37.5395 22.6108 37.3802 22.3986C36.495 21.2119 35.3146 20.2776 33.9564 19.6886C34.701 19.0088 35.2227 18.1197 35.453 17.1381C35.6833 16.1565 35.6114 15.1282 35.2469 14.1881C34.8823 13.2481 34.242 12.4402 33.4101 11.8706C32.5782 11.3009 31.5934 10.9961 30.5852 10.9961C29.5769 10.9961 28.5922 11.3009 27.7603 11.8706C26.9283 12.4402 26.2881 13.2481 25.9235 14.1881C25.5589 15.1282 25.487 16.1565 25.7173 17.1381C25.9476 18.1197 26.4693 19.0088 27.2139 19.6886C26.2332 20.1127 25.3423 20.7198 24.5889 21.4774C23.8355 20.7198 22.9446 20.1127 21.9639 19.6886C22.7085 19.0088 23.2302 18.1197 23.4605 17.1381C23.6908 16.1565 23.6189 15.1282 23.2544 14.1881C22.8898 13.2481 22.2495 12.4402 21.4176 11.8706C20.5857 11.3009 19.6009 10.9961 18.5927 10.9961C17.5844 10.9961 16.5997 11.3009 15.7678 11.8706C14.9358 12.4402 14.2956 13.2481 13.931 14.1881C13.5664 15.1282 13.4945 16.1565 13.7248 17.1381C13.9551 18.1197 14.4768 19.0088 15.2214 19.6886C13.8572 20.2757 12.671 21.2106 11.7814 22.3999C11.7026 22.5049 11.6453 22.6245 11.6127 22.7517C11.5801 22.8789 11.5729 23.0113 11.5915 23.1413C11.61 23.2713 11.654 23.3964 11.7209 23.5094C11.7879 23.6224 11.8764 23.7211 11.9814 23.7999ZM30.5814 12.9999C31.1748 12.9999 31.7548 13.1758 32.2481 13.5055C32.7415 13.8351 33.126 14.3036 33.3531 14.8518C33.5801 15.4 33.6395 16.0032 33.5238 16.5851C33.408 17.1671 33.1223 17.7016 32.7027 18.1212C32.2832 18.5407 31.7486 18.8265 31.1667 18.9422C30.5847 19.058 29.9815 18.9986 29.4334 18.7715C28.8852 18.5444 28.4167 18.1599 28.087 17.6666C27.7574 17.1732 27.5814 16.5932 27.5814 15.9999C27.5814 15.2042 27.8975 14.4411 28.4601 13.8785C29.0227 13.3159 29.7858 12.9999 30.5814 12.9999ZM18.5814 12.9999C19.1748 12.9999 19.7548 13.1758 20.2481 13.5055C20.7415 13.8351 21.126 14.3036 21.3531 14.8518C21.5801 15.4 21.6395 16.0032 21.5238 16.5851C21.408 17.1671 21.1223 17.7016 20.7027 18.1212C20.2832 18.5407 19.7486 18.8265 19.1667 18.9422C18.5847 19.058 17.9815 18.9986 17.4334 18.7715C16.8852 18.5444 16.4167 18.1599 16.087 17.6666C15.7574 17.1732 15.5814 16.5932 15.5814 15.9999C15.5814 15.2042 15.8975 14.4411 16.4601 13.8785C17.0227 13.3159 17.7858 12.9999 18.5814 12.9999ZM33.9564 32.6886C34.701 32.0088 35.2227 31.1197 35.453 30.1381C35.6833 29.1565 35.6114 28.1282 35.2469 27.1881C34.8823 26.2481 34.242 25.4402 33.4101 24.8706C32.5782 24.3009 31.5934 23.9961 30.5852 23.9961C29.5769 23.9961 28.5922 24.3009 27.7603 24.8706C26.9283 25.4402 26.2881 26.2481 25.9235 27.1881C25.5589 28.1282 25.487 29.1565 25.7173 30.1381C25.9476 31.1197 26.4693 32.0088 27.2139 32.6886C26.2332 33.1127 25.3423 33.7198 24.5889 34.4774C23.8355 33.7198 22.9446 33.1127 21.9639 32.6886C22.7085 32.0088 23.2302 31.1197 23.4605 30.1381C23.6908 29.1565 23.6189 28.1282 23.2544 27.1881C22.8898 26.2481 22.2495 25.4402 21.4176 24.8706C20.5857 24.3009 19.6009 23.9961 18.5927 23.9961C17.5844 23.9961 16.5997 24.3009 15.7678 24.8706C14.9358 25.4402 14.2956 26.2481 13.931 27.1881C13.5664 28.1282 13.4945 29.1565 13.7248 30.1381C13.9551 31.1197 14.4768 32.0088 15.2214 32.6886C13.8572 33.2757 12.671 34.2106 11.7814 35.3999C11.7026 35.5049 11.6453 35.6245 11.6127 35.7517C11.5801 35.8789 11.5729 36.0113 11.5915 36.1413C11.61 36.2713 11.654 36.3964 11.7209 36.5094C11.7879 36.6224 11.8764 36.7211 11.9814 36.7999C12.0865 36.8787 12.206 36.936 12.3332 36.9686C12.4605 37.0012 12.5928 37.0084 12.7228 36.9898C12.8528 36.9712 12.9779 36.9272 13.0909 36.8603C13.2039 36.7934 13.3026 36.7049 13.3814 36.5999C13.9869 35.7926 14.772 35.1374 15.6745 34.6861C16.5771 34.2348 17.5723 33.9999 18.5814 33.9999C19.5905 33.9999 20.5857 34.2348 21.4883 34.6861C22.3909 35.1374 23.176 35.7926 23.7814 36.5999C23.9407 36.8118 24.1777 36.9519 24.4403 36.9891C24.7028 37.0264 24.9694 36.9579 25.1814 36.7986C25.257 36.7424 25.324 36.6754 25.3802 36.5999C25.9856 35.7926 26.7707 35.1374 27.6733 34.6861C28.5758 34.2348 29.5711 33.9999 30.5802 33.9999C31.5893 33.9999 32.5845 34.2348 33.4871 34.6861C34.3896 35.1374 35.1747 35.7926 35.7802 36.5999C35.9395 36.812 36.1765 36.9522 36.4392 36.9896C36.7019 37.027 36.9686 36.9585 37.1808 36.7992C37.393 36.6399 37.5332 36.4029 37.5706 36.1402C37.608 35.8775 37.5395 35.6108 37.3802 35.3986C36.495 34.2119 35.3146 33.2776 33.9564 32.6886ZM18.5814 25.9999C19.1748 25.9999 19.7548 26.1758 20.2481 26.5055C20.7415 26.8351 21.126 27.3036 21.3531 27.8518C21.5801 28.4 21.6395 29.0032 21.5238 29.5851C21.408 30.1671 21.1223 30.7016 20.7027 31.1212C20.2832 31.5407 19.7486 31.8265 19.1667 31.9422C18.5847 32.058 17.9815 31.9986 17.4334 31.7715C16.8852 31.5444 16.4167 31.1599 16.087 30.6666C15.7574 30.1732 15.5814 29.5932 15.5814 28.9999C15.5814 28.2042 15.8975 27.4411 16.4601 26.8785C17.0227 26.3159 17.7858 25.9999 18.5814 25.9999ZM30.5814 25.9999C31.1748 25.9999 31.7548 26.1758 32.2481 26.5055C32.7415 26.8351 33.126 27.3036 33.3531 27.8518C33.5801 28.4 33.6395 29.0032 33.5238 29.5851C33.408 30.1671 33.1223 30.7016 32.7027 31.1212C32.2832 31.5407 31.7486 31.8265 31.1667 31.9422C30.5847 32.058 29.9815 31.9986 29.4334 31.7715C28.8852 31.5444 28.4167 31.1599 28.087 30.6666C27.7574 30.1732 27.5814 29.5932 27.5814 28.9999C27.5814 28.2042 27.8975 27.4411 28.4601 26.8785C29.0227 26.3159 29.7858 25.9999 30.5814 25.9999Z" fill="#FFAA00"/>
</svg>
