<svg width="31" height="23" viewBox="0 0 31 23" fill="none" xmlns="http://www.w3.org/2000/svg">
<path d="M30.1277 11.7514C30.134 14.1328 29.3614 16.4511 27.9277 18.3526C27.8487 18.4577 27.7499 18.5462 27.6367 18.613C27.5236 18.6799 27.3983 18.7238 27.2682 18.7422C27.1381 18.7607 27.0056 18.7533 26.8784 18.7206C26.7511 18.6878 26.6315 18.6303 26.5264 18.5514C26.4214 18.4724 26.3329 18.3735 26.2661 18.2604C26.1992 18.1472 26.1553 18.022 26.1369 17.8919C26.1184 17.7618 26.1258 17.6293 26.1585 17.502C26.1912 17.3748 26.2487 17.2552 26.3277 17.1501C27.5012 15.5954 28.1334 13.6993 28.1277 11.7514C28.1277 9.36443 27.1795 7.07524 25.4917 5.38742C23.8038 3.69959 21.5146 2.75138 19.1277 2.75138C16.7407 2.75138 14.4516 3.69959 12.7637 5.38742C11.0759 7.07524 10.1277 9.36443 10.1277 11.7514C10.1277 12.0166 10.0223 12.2709 9.8348 12.4585C9.64726 12.646 9.39291 12.7514 9.12769 12.7514C8.86248 12.7514 8.60812 12.646 8.42059 12.4585C8.23305 12.2709 8.12769 12.0166 8.12769 11.7514C8.1272 10.7422 8.26558 9.7378 8.53894 8.76638C8.40269 8.75138 8.26519 8.75138 8.12769 8.75138C6.53639 8.75138 5.01027 9.38352 3.88505 10.5087C2.75983 11.634 2.12769 13.1601 2.12769 14.7514C2.12769 16.3427 2.75983 17.8688 3.88505 18.994C5.01027 20.1192 6.53639 20.7514 8.12769 20.7514H11.1277C11.3929 20.7514 11.6473 20.8567 11.8348 21.0443C12.0223 21.2318 12.1277 21.4862 12.1277 21.7514C12.1277 22.0166 12.0223 22.271 11.8348 22.4585C11.6473 22.646 11.3929 22.7514 11.1277 22.7514H8.12769C7.02791 22.7516 5.93989 22.5251 4.93158 22.086C3.92327 21.6469 3.01633 21.0046 2.26741 20.1992C1.51849 19.3938 0.943661 18.4427 0.578839 17.4052C0.214017 16.3677 0.0670329 15.2661 0.147067 14.1692C0.2271 13.0723 0.532432 12.0038 1.04399 11.0302C1.55556 10.0566 2.26236 9.199 3.12026 8.51087C3.97816 7.82273 4.96872 7.31888 6.0301 7.03077C7.09147 6.74266 8.20085 6.67649 9.28894 6.83638C10.3969 4.62032 12.2206 2.84322 14.4646 1.79292C16.7086 0.742614 19.2414 0.480625 21.6529 1.04938C24.0643 1.61815 26.2131 2.98434 27.7512 4.92669C29.2894 6.86904 30.1267 9.27377 30.1277 11.7514ZM18.8352 11.0439C18.7423 10.9509 18.632 10.8771 18.5106 10.8268C18.3892 10.7765 18.2591 10.7506 18.1277 10.7506C17.9963 10.7506 17.8662 10.7765 17.7448 10.8268C17.6234 10.8771 17.5131 10.9509 17.4202 11.0439L13.4202 15.0439C13.3273 15.1368 13.2536 15.2471 13.2033 15.3685C13.153 15.4899 13.1271 15.62 13.1271 15.7514C13.1271 15.8828 13.153 16.0129 13.2033 16.1343C13.2536 16.2557 13.3273 16.366 13.4202 16.4589C13.6078 16.6465 13.8623 16.7519 14.1277 16.7519C14.2591 16.7519 14.3892 16.7261 14.5106 16.6758C14.632 16.6255 14.7423 16.5518 14.8352 16.4589L17.1277 14.1651V21.7514C17.1277 22.0166 17.233 22.271 17.4206 22.4585C17.6081 22.646 17.8625 22.7514 18.1277 22.7514C18.3929 22.7514 18.6473 22.646 18.8348 22.4585C19.0223 22.271 19.1277 22.0166 19.1277 21.7514V14.1651L21.4202 16.4589C21.5131 16.5518 21.6234 16.6255 21.7448 16.6758C21.8662 16.7261 21.9963 16.7519 22.1277 16.7519C22.2591 16.7519 22.3892 16.7261 22.5106 16.6758C22.632 16.6255 22.7423 16.5518 22.8352 16.4589C22.9281 16.366 23.0018 16.2557 23.0521 16.1343C23.1024 16.0129 23.1283 15.8828 23.1283 15.7514C23.1283 15.62 23.1024 15.4899 23.0521 15.3685C23.0018 15.2471 22.9281 15.1368 22.8352 15.0439L18.8352 11.0439Z" fill="#0074D9"/>
</svg>
