<svg width="138" height="25" viewBox="0 0 138 25" fill="none" xmlns="http://www.w3.org/2000/svg">
<path d="M8.308 19.52C6.852 19.52 5.51733 19.1733 4.304 18.48C3.09067 17.7867 2.11133 16.7987 1.366 15.516C0.638 14.2333 0.274 12.6993 0.274 10.914C0.274 9.146 0.620667 7.60333 1.314 6.286C2.00733 4.95133 2.98667 3.92 4.252 3.192C5.53467 2.44667 7.04267 2.074 8.776 2.074C9.4 2.074 10.0413 2.13467 10.7 2.256C11.376 2.37733 12 2.58533 12.572 2.88C13.144 3.15733 13.6033 3.53 13.95 3.998C14.314 4.466 14.496 5.04667 14.496 5.74C14.5133 6.48533 14.288 7.144 13.82 7.716C13.352 8.27067 12.6933 8.548 11.844 8.548C11.324 8.548 10.9513 8.42667 10.726 8.184C10.518 7.924 10.4227 7.73333 10.44 7.612C10.44 7.56 10.544 7.47333 10.752 7.352C10.9773 7.21333 11.194 7.014 11.402 6.754C11.6273 6.47667 11.74 6.11267 11.74 5.662C11.74 4.882 11.48 4.26667 10.96 3.816C10.44 3.348 9.70333 3.114 8.75 3.114C7.71 3.114 6.774 3.40867 5.942 3.998C5.12733 4.58733 4.486 5.454 4.018 6.598C3.55 7.72467 3.316 9.11133 3.316 10.758C3.316 12.1447 3.55867 13.41 4.044 14.554C4.54667 15.6807 5.24 16.582 6.124 17.258C7.02533 17.9167 8.06533 18.246 9.244 18.246C10.18 18.246 10.9773 18.0553 11.636 17.674C12.312 17.2753 12.9187 16.6427 13.456 15.776C13.612 15.4813 13.8893 15.4553 14.288 15.698C14.444 15.802 14.5653 15.932 14.652 16.088C14.7387 16.2267 14.7213 16.374 14.6 16.53C13.9413 17.362 13.3173 17.9947 12.728 18.428C12.1387 18.844 11.4973 19.13 10.804 19.286C10.1107 19.442 9.27867 19.52 8.308 19.52ZM24.6063 19.26C24.6063 19.26 24.511 19.0173 24.3203 18.532C24.147 18.0293 23.913 17.3793 23.6183 16.582C23.341 15.7673 23.0203 14.8833 22.6563 13.93C22.3097 12.9593 21.9543 11.9973 21.5903 11.044C21.2437 10.0733 20.923 9.18933 20.6283 8.392C20.351 7.59467 20.117 6.95333 19.9263 6.468C19.753 5.98267 19.6663 5.74 19.6663 5.74C19.389 5.02933 19.1117 4.518 18.8343 4.206C18.557 3.894 18.141 3.686 17.5863 3.582C17.3437 3.53 17.1703 3.48667 17.0663 3.452C16.9797 3.41733 16.9363 3.26133 16.9363 2.984C16.9363 2.68933 17.0403 2.53333 17.2483 2.516C17.4563 2.48133 17.699 2.464 17.9763 2.464C19.1377 2.48133 20.039 2.698 20.6803 3.114C21.3217 3.51267 21.833 4.206 22.2143 5.194L25.9843 15.334H26.0623L29.6503 4.908C29.841 4.35333 29.8497 4.00667 29.6763 3.868C29.503 3.712 29.113 3.634 28.5063 3.634C28.333 3.634 28.1857 3.61667 28.0643 3.582C27.943 3.54733 27.8737 3.38267 27.8563 3.088C27.8563 2.94933 27.891 2.81933 27.9603 2.698C28.0297 2.57667 28.1423 2.516 28.2983 2.516C28.853 2.53333 29.3297 2.55067 29.7283 2.568C30.1443 2.58533 30.6123 2.594 31.1323 2.594C31.479 2.594 31.765 2.594 31.9903 2.594C32.2157 2.57667 32.441 2.568 32.6663 2.568C32.909 2.55067 33.2123 2.53333 33.5763 2.516C33.7497 2.516 33.871 2.57667 33.9403 2.698C34.0097 2.81933 34.0443 2.94933 34.0443 3.088C34.027 3.38267 33.9577 3.54733 33.8363 3.582C33.7323 3.61667 33.585 3.634 33.3943 3.634C32.7357 3.634 32.2157 3.75533 31.8343 3.998C31.453 4.24067 31.1237 4.70867 30.8463 5.402C30.8463 5.38467 30.751 5.62733 30.5603 6.13C30.387 6.61533 30.153 7.274 29.8583 8.106C29.5637 8.92067 29.2343 9.822 28.8703 10.81C28.5237 11.798 28.1683 12.786 27.8043 13.774C27.4403 14.762 27.111 15.672 26.8163 16.504C26.5217 17.336 26.279 18.0033 26.0883 18.506C25.915 19.0087 25.8283 19.26 25.8283 19.26H24.6063ZM34.8361 13.826C34.6628 13.826 34.5155 13.7307 34.3941 13.54C34.2901 13.3493 34.2381 13.1673 34.2381 12.994C34.2381 12.8033 34.2901 12.6213 34.3941 12.448C34.5155 12.2573 34.6628 12.162 34.8361 12.162H40.5301C40.7208 12.162 40.8681 12.2573 40.9721 12.448C41.0761 12.6213 41.1281 12.8033 41.1281 12.994C41.1281 13.1673 41.0761 13.3493 40.9721 13.54C40.8681 13.7307 40.7208 13.826 40.5301 13.826H34.8361ZM50.872 19.52C49.0694 19.52 47.6827 19.208 46.712 18.584C45.7414 17.9427 45.256 17.0067 45.256 15.776C45.256 15.152 45.464 14.6407 45.88 14.242C46.3134 13.826 46.868 13.618 47.544 13.618C47.9947 13.6353 48.3067 13.748 48.48 13.956C48.6707 14.164 48.766 14.32 48.766 14.424C48.766 14.4587 48.688 14.5193 48.532 14.606C48.376 14.6753 48.22 14.814 48.064 15.022C47.908 15.2127 47.83 15.516 47.83 15.932C47.83 16.712 48.0727 17.336 48.558 17.804C49.0434 18.2547 49.8147 18.48 50.872 18.48C51.6174 18.48 52.25 18.3413 52.77 18.064C53.3074 17.7693 53.7147 17.3967 53.992 16.946C54.2694 16.478 54.408 16.0013 54.408 15.516C54.408 14.788 54.2 14.19 53.784 13.722C53.368 13.254 52.822 12.8553 52.146 12.526C51.4874 12.1793 50.7854 11.85 50.04 11.538C49.2947 11.226 48.584 10.8707 47.908 10.472C47.2494 10.0733 46.7034 9.57933 46.27 8.99C45.8367 8.38333 45.6114 7.62933 45.594 6.728C45.5767 5.636 45.8107 4.752 46.296 4.076C46.7814 3.38267 47.4574 2.88 48.324 2.568C49.1907 2.23867 50.1527 2.074 51.21 2.074C51.99 2.074 52.7527 2.18667 53.498 2.412C54.2607 2.63733 54.8847 2.99267 55.37 3.478C55.8727 3.946 56.124 4.57 56.124 5.35C56.124 5.974 55.9074 6.494 55.474 6.91C55.058 7.30867 54.512 7.508 53.836 7.508C53.3854 7.47333 53.0647 7.36067 52.874 7.17C52.7007 6.962 52.614 6.806 52.614 6.702C52.614 6.65 52.718 6.58933 52.926 6.52C53.134 6.43333 53.342 6.29467 53.55 6.104C53.758 5.896 53.862 5.59267 53.862 5.194C53.862 4.53533 53.6107 4.03267 53.108 3.686C52.6054 3.322 51.9814 3.14 51.236 3.14C50.1094 3.14 49.286 3.40867 48.766 3.946C48.2634 4.466 48.012 5.05533 48.012 5.714C48.012 6.35533 48.1854 6.87533 48.532 7.274C48.8787 7.67267 49.3987 8.06267 50.092 8.444C50.872 8.86 51.6607 9.25 52.458 9.614C53.2554 9.96067 53.992 10.3507 54.668 10.784C55.3614 11.2173 55.916 11.7633 56.332 12.422C56.748 13.0633 56.956 13.8953 56.956 14.918C56.956 15.802 56.6787 16.5907 56.124 17.284C55.5867 17.9773 54.8587 18.5233 53.94 18.922C53.0214 19.3207 51.9987 19.52 50.872 19.52Z" fill="#0074D9"/>
<path d="M66.574 19.312C65.3607 19.312 64.2947 19.026 63.376 18.454C62.4747 17.882 61.7727 17.1367 61.27 16.218C60.7673 15.2993 60.516 14.32 60.516 13.28C60.516 12.2573 60.698 11.3473 61.062 10.55C61.426 9.75267 61.9027 9.08533 62.492 8.548C63.0987 8.01067 63.7573 7.60333 64.468 7.326C65.1787 7.04867 65.8807 6.91 66.574 6.91C67.7873 6.91 68.8447 7.196 69.746 7.768C70.6647 8.34 71.3753 9.08533 71.878 10.004C72.3807 10.9227 72.632 11.902 72.632 12.942C72.632 13.9647 72.4413 14.8747 72.06 15.672C71.696 16.4693 71.2107 17.1367 70.604 17.674C70.0147 18.2113 69.3647 18.6187 68.654 18.896C67.9433 19.1733 67.25 19.312 66.574 19.312ZM66.574 18.35C67.4233 18.35 68.0907 18.0987 68.576 17.596C69.0787 17.0933 69.434 16.4347 69.642 15.62C69.8673 14.788 69.98 13.8953 69.98 12.942C69.98 12.0233 69.8673 11.1827 69.642 10.42C69.4167 9.65733 69.0527 9.042 68.55 8.574C68.0473 8.106 67.3887 7.872 66.574 7.872C65.7247 7.872 65.0487 8.12333 64.546 8.626C64.0433 9.11133 63.688 9.76133 63.48 10.576C63.272 11.3733 63.168 12.2573 63.168 13.228C63.168 14.1293 63.272 14.97 63.48 15.75C63.7053 16.53 64.0693 17.1627 64.572 17.648C65.0747 18.116 65.742 18.35 66.574 18.35ZM76.1158 19.078C75.9945 19.078 75.8905 19.026 75.8038 18.922C75.7345 18.8007 75.6998 18.6793 75.6998 18.558C75.7345 18.298 75.8038 18.1593 75.9078 18.142C76.0118 18.1073 76.1505 18.09 76.3238 18.09C76.8091 18.09 77.1385 18.012 77.3118 17.856C77.4851 17.6827 77.5805 17.4573 77.5978 17.18C77.6325 16.9027 77.6498 16.6167 77.6498 16.322V10.368C77.6498 10.056 77.6325 9.77 77.5978 9.51C77.5805 9.23267 77.4851 9.016 77.3118 8.86C77.1385 8.68667 76.8091 8.6 76.3238 8.6C76.1678 8.6 76.0205 8.58267 75.8818 8.548C75.7605 8.496 75.6998 8.34 75.6998 8.08C75.6998 7.82 75.8385 7.664 76.1158 7.612C76.9131 7.49067 77.5198 7.36933 77.9358 7.248C78.3691 7.12667 78.6898 7.02267 78.8978 6.936C79.1231 6.84933 79.3225 6.79733 79.4958 6.78C79.6345 6.76267 79.7471 6.78867 79.8338 6.858C79.9378 6.92733 79.9898 7.066 79.9898 7.274V8.886H80.0678C80.6571 8.314 81.2638 7.846 81.8878 7.482C82.5118 7.10067 83.0838 6.91 83.6038 6.91C84.2105 6.91 84.6698 7.13533 84.9818 7.586C85.3111 8.03667 85.4758 8.51333 85.4758 9.016C85.4758 9.44933 85.3371 9.874 85.0598 10.29C84.7825 10.6887 84.3665 10.888 83.8118 10.888C83.5345 10.888 83.3091 10.836 83.1358 10.732C82.9798 10.6107 82.8931 10.524 82.8758 10.472C82.8758 10.4373 82.9538 10.3333 83.1098 10.16C83.2831 9.98667 83.3698 9.77 83.3698 9.51C83.3698 9.198 83.2831 8.94667 83.1098 8.756C82.9538 8.56533 82.7371 8.47 82.4598 8.47C82.1651 8.47 81.7838 8.61733 81.3158 8.912C80.8651 9.20667 80.4318 9.562 80.0158 9.978V16.322C80.0158 16.6167 80.0245 16.9027 80.0418 17.18C80.0765 17.4573 80.1805 17.6827 80.3538 17.856C80.5445 18.012 80.8825 18.09 81.3678 18.09C81.5238 18.09 81.6538 18.1073 81.7578 18.142C81.8791 18.1593 81.9485 18.298 81.9658 18.558C81.9658 18.6793 81.9311 18.8007 81.8618 18.922C81.7925 19.026 81.6885 19.078 81.5498 19.078C81.0471 19.0433 80.5791 19.0173 80.1458 19C79.7298 19 79.2878 19 78.8198 19C78.3518 19 77.9098 19 77.4938 19C77.0778 19.0173 76.6185 19.0433 76.1158 19.078ZM92.8027 19.442C92.2827 19.442 91.7887 19.312 91.3207 19.052C90.8527 18.792 90.4627 18.3933 90.1507 17.856C89.8561 17.3187 89.7087 16.6427 89.7087 15.828V8.184L88.2007 8.236C88.0794 8.236 87.9841 8.19267 87.9147 8.106C87.8627 8.002 87.8367 7.88933 87.8367 7.768C87.8367 7.42133 87.9581 7.222 88.2007 7.17C88.8421 7.04867 89.3274 6.84933 89.6567 6.572C89.9861 6.27733 90.2374 5.93067 90.4107 5.532C90.6014 5.13333 90.7747 4.7 90.9307 4.232C90.9827 4.09333 91.0607 4.00667 91.1647 3.972C91.2687 3.92 91.3814 3.894 91.5027 3.894C91.6067 3.894 91.7194 3.92 91.8407 3.972C91.9794 4.024 92.0487 4.11933 92.0487 4.258L91.8667 7.222L94.9087 7.04C95.0647 7.02267 95.1687 7.066 95.2207 7.17C95.2727 7.274 95.2987 7.39533 95.2987 7.534C95.2987 7.70733 95.2641 7.88067 95.1947 8.054C95.1427 8.22733 95.0734 8.314 94.9867 8.314L92.0747 8.236V16.14C92.0747 16.6427 92.1787 17.102 92.3867 17.518C92.6121 17.934 93.0107 18.142 93.5827 18.142C93.7734 18.142 93.9901 18.1247 94.2327 18.09C94.4754 18.0553 94.7354 17.9773 95.0127 17.856C95.0821 17.8213 95.1514 17.7953 95.2207 17.778C95.2901 17.7433 95.3594 17.726 95.4287 17.726C95.5674 17.726 95.6714 17.7867 95.7407 17.908C95.8101 18.012 95.8707 18.1247 95.9227 18.246C95.9747 18.402 95.9314 18.5233 95.7927 18.61C95.2554 18.9567 94.7614 19.182 94.3107 19.286C93.8601 19.39 93.3574 19.442 92.8027 19.442ZM99.6123 19.078C99.4909 19.078 99.3869 19.026 99.3003 18.922C99.2309 18.8007 99.1963 18.6793 99.1963 18.558C99.2309 18.298 99.3003 18.1593 99.4043 18.142C99.5083 18.1073 99.6469 18.09 99.8203 18.09C100.306 18.09 100.635 18.012 100.808 17.856C100.982 17.6827 101.077 17.4573 101.094 17.18C101.129 16.9027 101.146 16.6167 101.146 16.322V10.368C101.146 10.056 101.129 9.77 101.094 9.51C101.077 9.23267 100.982 9.016 100.808 8.86C100.635 8.68667 100.306 8.6 99.8203 8.6C99.6643 8.6 99.5169 8.58267 99.3783 8.548C99.2569 8.496 99.1963 8.34 99.1963 8.08C99.1963 7.82 99.3349 7.664 99.6123 7.612C100.41 7.49067 101.016 7.36933 101.432 7.248C101.866 7.12667 102.195 7.02267 102.42 6.936C102.646 6.84933 102.845 6.79733 103.018 6.78C103.157 6.76267 103.27 6.78867 103.356 6.858C103.46 6.92733 103.512 7.066 103.512 7.274V16.322C103.512 16.6167 103.521 16.9027 103.538 17.18C103.573 17.4573 103.677 17.6827 103.85 17.856C104.041 18.012 104.379 18.09 104.864 18.09C105.02 18.09 105.15 18.1073 105.254 18.142C105.376 18.1593 105.445 18.298 105.462 18.558C105.462 18.6793 105.428 18.8007 105.358 18.922C105.289 19.026 105.185 19.078 105.046 19.078C104.544 19.0433 104.076 19.0173 103.642 19C103.226 19 102.784 19 102.316 19C101.848 19 101.406 19 100.99 19C100.574 19.0173 100.115 19.0433 99.6123 19.078ZM102.186 3.894C101.701 3.894 101.294 3.74667 100.964 3.452C100.635 3.14 100.47 2.75867 100.47 2.308C100.47 1.90933 100.67 1.554 101.068 1.242C101.467 0.929999 101.918 0.773999 102.42 0.773999C102.854 0.773999 103.209 0.929999 103.486 1.242C103.764 1.53667 103.902 1.918 103.902 2.386C103.902 2.802 103.738 3.15733 103.408 3.452C103.079 3.74667 102.672 3.894 102.186 3.894ZM108.479 19.078C108.357 19.078 108.253 19.026 108.167 18.922C108.097 18.8007 108.063 18.6793 108.063 18.558C108.097 18.298 108.167 18.1593 108.271 18.142C108.375 18.1073 108.513 18.09 108.687 18.09C109.172 18.09 109.501 18.012 109.675 17.856C109.848 17.6827 109.943 17.4573 109.961 17.18C109.995 16.9027 110.013 16.6167 110.013 16.322V10.368C110.013 10.056 109.995 9.77 109.961 9.51C109.943 9.23267 109.848 9.016 109.675 8.86C109.501 8.68667 109.172 8.6 108.687 8.6C108.531 8.6 108.383 8.58267 108.245 8.548C108.123 8.496 108.063 8.34 108.063 8.08C108.063 7.82 108.201 7.664 108.479 7.612C109.276 7.49067 109.883 7.36933 110.299 7.248C110.732 7.12667 111.053 7.02267 111.261 6.936C111.486 6.84933 111.685 6.79733 111.859 6.78C111.997 6.76267 112.11 6.78867 112.197 6.858C112.301 6.92733 112.353 7.066 112.353 7.274V8.912H112.431C112.777 8.58267 113.133 8.27067 113.497 7.976C113.861 7.664 114.285 7.41267 114.771 7.222C115.273 7.014 115.889 6.91 116.617 6.91C117.795 6.91 118.731 7.26533 119.425 7.976C120.118 8.68667 120.465 9.62267 120.465 10.784V16.322C120.465 16.6167 120.473 16.9027 120.491 17.18C120.525 17.4573 120.629 17.6827 120.803 17.856C120.993 18.012 121.331 18.09 121.817 18.09C121.973 18.09 122.103 18.1073 122.207 18.142C122.328 18.1593 122.397 18.298 122.415 18.558C122.415 18.6793 122.38 18.8007 122.311 18.922C122.241 19.026 122.137 19.078 121.999 19.078C121.496 19.0433 121.028 19.0173 120.595 19C120.179 19 119.737 19 119.269 19C118.801 19 118.359 19 117.943 19C117.527 19.0173 117.067 19.0433 116.565 19.078C116.443 19.078 116.339 19.026 116.253 18.922C116.183 18.8007 116.149 18.6793 116.149 18.558C116.166 18.298 116.227 18.1593 116.331 18.142C116.452 18.1073 116.591 18.09 116.747 18.09C117.232 18.09 117.561 18.012 117.735 17.856C117.925 17.6827 118.029 17.4573 118.047 17.18C118.081 16.9027 118.099 16.6167 118.099 16.322V10.81C118.099 10.238 117.969 9.77 117.709 9.406C117.466 9.042 117.154 8.77333 116.773 8.6C116.391 8.42667 116.001 8.34 115.603 8.34C115.013 8.34 114.493 8.45267 114.043 8.678C113.592 8.886 113.228 9.12867 112.951 9.406C112.673 9.68333 112.483 9.926 112.379 10.134V16.322C112.379 16.6167 112.387 16.9027 112.405 17.18C112.439 17.4573 112.543 17.6827 112.717 17.856C112.907 18.012 113.245 18.09 113.731 18.09C113.887 18.09 114.017 18.1073 114.121 18.142C114.242 18.1593 114.311 18.298 114.329 18.558C114.329 18.6793 114.294 18.8007 114.225 18.922C114.155 19.026 114.051 19.078 113.913 19.078C113.41 19.0433 112.942 19.0173 112.509 19C112.093 19 111.651 19 111.183 19C110.715 19 110.273 19 109.857 19C109.441 19.0173 108.981 19.0433 108.479 19.078ZM130.257 24.668C126.6 24.668 124.771 23.628 124.771 21.548C124.771 20.976 124.953 20.4647 125.317 20.014C125.681 19.5807 126.166 19.364 126.773 19.364C127.172 19.364 127.501 19.468 127.761 19.676C128.021 19.9013 128.151 20.0573 128.151 20.144C128.151 20.1787 128.082 20.2567 127.943 20.378C127.822 20.4993 127.692 20.664 127.553 20.872C127.432 21.08 127.371 21.3573 127.371 21.704C127.371 23.0387 128.515 23.706 130.803 23.706C132.103 23.706 133.108 23.4807 133.819 23.03C134.547 22.5793 134.911 21.8947 134.911 20.976C134.911 20.4733 134.746 20.092 134.417 19.832C134.105 19.572 133.68 19.39 133.143 19.286C132.623 19.182 132.042 19.1127 131.401 19.078C130.76 19.0607 130.11 19.0433 129.451 19.026C128.81 19.0087 128.212 18.9567 127.657 18.87C127.05 18.766 126.539 18.5667 126.123 18.272C125.724 17.96 125.525 17.4573 125.525 16.764C125.525 16.1227 125.75 15.568 126.201 15.1C126.669 14.6147 127.362 14.372 128.281 14.372C127.172 13.9387 126.426 13.41 126.045 12.786C125.681 12.162 125.499 11.5207 125.499 10.862C125.499 10.1167 125.707 9.44933 126.123 8.86C126.556 8.25333 127.146 7.77667 127.891 7.43C128.654 7.066 129.529 6.884 130.517 6.884C131.002 6.884 131.505 6.92733 132.025 7.014C132.562 7.08333 133.022 7.21333 133.403 7.404L136.965 6.728C137.156 6.71067 137.286 6.77133 137.355 6.91C137.424 7.04867 137.459 7.196 137.459 7.352C137.459 7.57733 137.424 7.80267 137.355 8.028C137.286 8.236 137.19 8.34 137.069 8.34L134.495 8.236V8.288C134.79 8.58267 135.041 8.97267 135.249 9.458C135.457 9.94333 135.561 10.4027 135.561 10.836C135.561 11.668 135.318 12.3873 134.833 12.994C134.365 13.6007 133.758 14.0687 133.013 14.398C132.285 14.71 131.522 14.866 130.725 14.866H129.581C128.68 14.866 128.021 14.9527 127.605 15.126C127.206 15.2993 127.007 15.5853 127.007 15.984C127.007 16.296 127.111 16.5387 127.319 16.712C127.544 16.868 127.943 16.9633 128.515 16.998L132.077 17.128C133.932 17.1973 135.249 17.492 136.029 18.012C136.826 18.532 137.225 19.3033 137.225 20.326C137.225 21.2447 136.93 22.0247 136.341 22.666C135.769 23.3247 134.954 23.8187 133.897 24.148C132.857 24.4947 131.644 24.668 130.257 24.668ZM130.517 14.112C131.314 14.112 131.964 13.8347 132.467 13.28C132.97 12.708 133.221 11.8933 133.221 10.836C133.221 9.86533 132.961 9.10267 132.441 8.548C131.938 7.976 131.288 7.69 130.491 7.69C129.728 7.69 129.087 7.96733 128.567 8.522C128.064 9.05933 127.813 9.81333 127.813 10.784C127.813 11.8413 128.064 12.6647 128.567 13.254C129.087 13.826 129.737 14.112 130.517 14.112Z" fill="#18191C"/>
</svg>
