<svg width="870" height="557" viewBox="0 0 870 557" fill="none" xmlns="http://www.w3.org/2000/svg">
<g filter="url(#filter0_d_138_2609)">
<path d="M102.984 334.869L179.256 378.905C182.428 380.735 186.52 379.639 188.351 376.468L190.236 373.203C192.066 370.032 190.97 365.94 187.798 364.109L111.526 320.073C108.355 318.243 104.262 319.339 102.432 322.51L100.547 325.775C98.7161 328.945 99.8135 333.037 102.984 334.869Z" fill="#E5E3FC"/>
<path opacity="0.73" d="M142.728 251.482L651.989 496.582C702.85 521.062 764.492 499.475 788.972 448.614C813.451 397.753 791.865 336.11 741.003 311.631L231.743 66.5307C180.881 42.0513 119.239 63.6377 94.7594 114.499C70.281 165.36 91.8663 227.003 142.728 251.482Z" fill="#E5E3FC"/>
<path d="M666.731 275.655C661.09 286.522 665.366 300.029 676.233 305.67L783.056 361.124C788.873 364.145 795.727 364.446 801.788 361.951C819.305 354.74 820.382 330.337 803.569 321.609L696.746 266.155C685.878 260.513 672.372 264.789 666.731 275.655Z" fill="#C9C7FF"/>
<path d="M189.709 252.665C199.122 248.03 205.247 237.785 205.411 227.387C205.495 222.048 204.313 216.115 207.517 211.816C210.863 207.328 217.514 206.748 221.753 203.071C226.446 198.999 227.169 191.645 224.619 186.01C222.104 180.45 216.793 174.593 219.701 169.222C220.79 167.21 222.83 165.919 224.539 164.384C230.069 159.419 232.204 150.992 229.439 144.13C226.673 137.269 219.057 132.57 211.634 133.393C204.212 134.217 197.757 140.674 197.267 148.044C196.964 152.627 198.644 157.648 196.251 161.585C193.368 166.329 186.548 166.466 181.7 169.233C176.592 172.148 173.794 178.541 175.139 184.219C178.477 198.297 174.417 196.576 164.348 204.317C158.207 209.038 151.498 217.593 150.947 225.53C149.561 245.538 171.107 261.823 189.709 252.665Z" fill="#7F6BF4"/>
<path d="M160.136 279.599C160.136 276.705 207.126 165.095 207.126 165.095" stroke="#343434" stroke-width="1.1417" stroke-miterlimit="10" stroke-linecap="round" stroke-linejoin="round"/>
<path d="M187.189 168.381L190.513 204.527" stroke="#343434" stroke-width="1.1417" stroke-miterlimit="10" stroke-linecap="round" stroke-linejoin="round"/>
<path d="M179.596 230.983C181.59 229.011 205.796 216.355 205.796 216.355" stroke="#343434" stroke-width="1.1417" stroke-miterlimit="10" stroke-linecap="round" stroke-linejoin="round"/>
<path d="M106.703 267.763C96.2964 266.273 87.2391 258.436 83.7951 248.609C82.0261 243.563 81.2732 237.564 76.8699 234.472C72.2728 231.244 65.771 232.75 60.5823 230.568C54.8368 228.152 51.8255 221.39 52.4646 215.249C53.0957 209.19 56.288 201.984 51.8278 197.782C50.1574 196.208 47.8095 195.612 45.7018 194.683C38.8799 191.678 34.1865 184.334 34.6435 176.961C35.1006 169.589 40.8495 162.769 48.1599 161.256C55.4702 159.743 63.6435 163.878 66.438 170.728C68.1757 174.987 68.1675 180.276 71.6847 183.275C75.9245 186.889 82.4448 184.91 87.9247 186.039C93.698 187.228 98.3786 192.435 98.896 198.245C100.178 212.648 103.49 209.759 115.501 213.997C122.828 216.583 131.905 222.634 134.937 230.002C142.584 248.578 127.268 270.71 106.703 267.763Z" fill="#7F6BF4"/>
<path d="M143.31 284.202C142.395 281.452 62.4684 189.974 62.4684 189.974" stroke="#343434" stroke-width="1.1417" stroke-miterlimit="10" stroke-linecap="round" stroke-linejoin="round"/>
<path d="M82.4448 186.929L90.7179 222.289" stroke="#343434" stroke-width="1.1417" stroke-miterlimit="10" stroke-linecap="round" stroke-linejoin="round"/>
<path d="M108.749 243.228C106.342 242.026 86.5106 240.507 86.5106 240.507" stroke="#343434" stroke-width="1.0919" stroke-miterlimit="10" stroke-linecap="round" stroke-linejoin="round"/>
<path d="M165.287 219.967C172.666 209.68 173.28 195.257 167.432 184.048C164.43 178.292 159.73 172.62 160.666 166.21C161.643 159.517 168.417 155.128 170.818 148.796C173.477 141.785 169.989 133.514 164 128.933C158.091 124.414 149.021 121.161 149.017 113.773C149.016 111.004 150.45 108.468 151.388 105.86C154.423 97.4195 151.826 87.1999 144.895 81.4324C137.964 75.6648 127.099 74.9549 119.641 80.0404C112.184 85.1258 109.023 95.6853 112.77 103.841C115.099 108.913 119.805 113.328 119.527 118.891C119.191 125.597 111.981 129.606 108.401 135.311C104.629 141.321 105.34 149.741 110.068 155.049C121.79 168.208 116.453 168.669 110.172 182.648C106.342 191.174 104.125 204.12 108.134 212.917C118.239 235.092 150.705 240.296 165.287 219.967Z" fill="#C8C0FC"/>
<path d="M132.389 111.842L147.763 289.962" stroke="#343434" stroke-width="1.2578" stroke-miterlimit="10" stroke-linecap="round" stroke-linejoin="round"/>
<path d="M122.891 187.145L140.462 208.867" stroke="#343434" stroke-width="1.2578" stroke-miterlimit="10" stroke-linecap="round" stroke-linejoin="round"/>
<path d="M147.763 128.495L137.513 163.974" stroke="#343434" stroke-width="1.2578" stroke-miterlimit="10" stroke-linecap="round" stroke-linejoin="round"/>
<path d="M120.287 279.716L137.846 372.329H168.784L184.67 281.369L120.287 279.716Z" fill="#343434"/>
<path d="M124.256 294.991L182.092 296.876" stroke="#FFF8F3" stroke-width="0.9524" stroke-miterlimit="10" stroke-linecap="round" stroke-linejoin="round"/>
<path d="M143.416 366.995L124.96 512.922L161.16 365.605" stroke="#343434" stroke-width="1.0804" stroke-miterlimit="10" stroke-linecap="round" stroke-linejoin="round"/>
<path d="M140.576 348.233L181.744 511.34L166.838 347.539L140.576 348.233Z" stroke="#343434" stroke-width="1.0804" stroke-miterlimit="10" stroke-linecap="round" stroke-linejoin="round"/>
<path d="M651.4 252.989C641.987 248.355 635.862 238.11 635.699 227.712C635.614 222.372 636.796 216.44 633.592 212.141C630.245 207.653 623.595 207.073 619.356 203.396C614.663 199.324 613.941 191.97 616.49 186.335C619.005 180.775 624.316 174.918 621.409 169.547C620.319 167.534 618.279 166.243 616.569 164.709C611.039 159.744 608.904 151.316 611.669 144.455C614.435 137.594 622.051 132.894 629.474 133.718C636.896 134.542 643.351 140.998 643.841 148.369C644.145 152.952 642.464 157.973 644.856 161.91C647.739 166.654 654.559 166.791 659.407 169.557C664.515 172.473 667.313 178.865 665.968 184.543C662.63 198.621 666.69 196.901 676.759 204.642C682.9 209.363 689.608 217.918 690.159 225.855C691.549 245.863 670.003 262.147 651.4 252.989Z" fill="#7F6BF4"/>
<path d="M680.975 286.875C680.975 283.981 633.984 165.421 633.984 165.421" stroke="#343434" stroke-width="1.1417" stroke-miterlimit="10" stroke-linecap="round" stroke-linejoin="round"/>
<path d="M653.92 168.707L652.259 211.752" stroke="#343434" stroke-width="1.1417" stroke-miterlimit="10" stroke-linecap="round" stroke-linejoin="round"/>
<path d="M661.286 234.797C659.292 232.825 635.313 216.681 635.313 216.681" stroke="#343434" stroke-width="1.1417" stroke-miterlimit="10" stroke-linecap="round" stroke-linejoin="round"/>
<path d="M734.408 268.089C744.814 266.598 753.871 258.761 757.315 248.936C759.084 243.89 759.837 237.89 764.239 234.798C768.836 231.57 775.338 233.075 780.527 230.893C786.272 228.477 789.284 221.715 788.645 215.574C788.014 209.516 784.821 202.31 789.281 198.108C790.952 196.534 793.3 195.939 795.407 195.01C802.229 192.004 806.923 184.66 806.466 177.287C806.009 169.916 800.26 163.096 792.949 161.582C785.639 160.07 777.466 164.206 774.67 171.055C772.932 175.313 772.941 180.603 769.423 183.601C765.184 187.216 758.663 185.237 753.183 186.366C747.41 187.555 742.729 192.762 742.212 198.571C740.93 212.975 737.619 210.085 725.607 214.323C718.28 216.908 709.203 222.959 706.171 230.327C698.527 248.902 713.842 271.035 734.408 268.089Z" fill="#7F6BF4"/>
<path d="M697.799 284.527C698.714 281.778 778.641 190.299 778.641 190.299" stroke="#343434" stroke-width="1.1417" stroke-miterlimit="10" stroke-linecap="round" stroke-linejoin="round"/>
<path d="M758.666 187.254L750.392 222.615" stroke="#343434" stroke-width="1.1417" stroke-miterlimit="10" stroke-linecap="round" stroke-linejoin="round"/>
<path d="M733.386 242.368L754.6 240.833" stroke="#343434" stroke-width="1.0919" stroke-miterlimit="10" stroke-linecap="round" stroke-linejoin="round"/>
<path d="M675.823 220.292C668.444 210.005 667.831 195.583 673.678 184.374C676.681 178.618 681.381 172.946 680.444 166.535C679.468 159.841 672.693 155.454 670.292 149.122C667.633 142.111 671.122 133.839 677.111 129.259C683.02 124.74 692.09 121.487 692.093 114.099C692.094 111.33 690.661 108.794 689.722 106.185C686.688 97.7452 689.285 87.5267 696.216 81.758C703.147 75.9905 714.011 75.2806 721.469 80.366C728.927 85.4515 732.088 96.011 728.341 104.167C726.012 109.238 721.305 113.653 721.584 119.217C721.919 125.923 729.13 129.932 732.709 135.637C736.482 141.647 735.771 150.067 731.042 155.375C719.321 168.534 724.658 168.995 730.938 182.974C734.768 191.5 736.985 204.445 732.976 213.243C722.871 235.417 690.405 240.621 675.823 220.292Z" fill="#C8C0FC"/>
<path d="M708.722 112.167L693.347 290.288" stroke="#343434" stroke-width="1.2578" stroke-miterlimit="10" stroke-linecap="round" stroke-linejoin="round"/>
<path d="M718.22 187.47L700.648 209.192" stroke="#343434" stroke-width="1.2578" stroke-miterlimit="10" stroke-linecap="round" stroke-linejoin="round"/>
<path d="M693.347 128.82L703.597 170.6" stroke="#343434" stroke-width="1.2578" stroke-miterlimit="10" stroke-linecap="round" stroke-linejoin="round"/>
<path d="M720.823 280.041L703.264 372.655H672.327L656.441 281.695L720.823 280.041Z" fill="#343434"/>
<path d="M716.855 295.316L659.017 297.201" stroke="#FFF8F3" stroke-width="0.9524" stroke-miterlimit="10" stroke-linecap="round" stroke-linejoin="round"/>
<path d="M697.695 367.739L716.15 513.485L679.95 366.319" stroke="#343434" stroke-width="1.0919" stroke-miterlimit="10" stroke-linecap="round" stroke-linejoin="round"/>
<path d="M700.534 348.574L659.366 513.248L674.272 347.864L700.534 348.574Z" stroke="#343434" stroke-width="1.0919" stroke-miterlimit="10" stroke-linecap="round" stroke-linejoin="round"/>
<path d="M340.32 62.6924C334.471 73.4491 338.487 87.035 349.244 92.8838L454.983 150.375C460.742 153.505 467.588 153.939 473.697 151.56C491.348 144.685 492.893 120.307 476.251 111.259L370.51 53.7686C359.753 47.9198 346.167 51.9358 340.32 62.6924Z" fill="#C9C7FF"/>
<path d="M222.025 44.2611L300.69 83.867C303.961 85.5142 307.984 84.1848 309.631 80.9148L311.326 77.5473C312.973 74.2761 311.643 70.2532 308.373 68.6072L229.709 29.0013C226.438 27.3541 222.415 28.6835 220.769 31.9535L219.074 35.321C217.426 38.591 218.754 42.6139 222.025 44.2611Z" fill="#E5E3FC"/>
<path d="M308.531 138.609L387.195 178.215C390.465 179.862 394.489 178.532 396.136 175.262L397.83 171.895C399.477 168.625 398.148 164.601 394.878 162.955L316.214 123.349C312.944 121.702 308.92 123.031 307.274 126.301L305.579 129.667C303.932 132.939 305.261 136.962 308.531 138.609Z" fill="#C9C7FF"/>
<path d="M744.951 398.218L823.615 437.824C826.886 439.471 830.909 438.141 832.556 434.871L834.251 431.504C835.898 428.233 834.569 424.21 831.299 422.564L752.635 382.958C749.363 381.312 745.341 382.64 743.695 385.91L742 389.276C740.351 392.548 741.68 396.57 744.951 398.218Z" fill="#C9C7FF"/>
<path opacity="0.73" d="M199.601 423.832L324.054 511.286H411.5L228.509 382.696C217.196 374.746 201.436 377.498 193.487 388.81C185.537 400.122 188.289 415.882 199.601 423.832Z" fill="#E5E3FC"/>
<path d="M94.8174 296.875C94.8174 299.14 92.9823 300.975 90.718 300.975C88.4536 300.975 86.6185 299.14 86.6185 296.875C86.6185 294.611 88.4536 292.776 90.718 292.776C92.9823 292.776 94.8174 294.612 94.8174 296.875Z" fill="#E5E3FC"/>
<path d="M369.943 512.182L350.985 399.564L280.352 399.206L258.998 513.552" stroke="#343434" stroke-width="1.1022" stroke-miterlimit="10" stroke-linecap="round" stroke-linejoin="round"/>
<path d="M286.002 393.468H373.158C380.378 393.468 386.284 386.662 386.284 378.345C386.284 370.026 380.377 363.222 373.158 363.222H286.002C278.783 363.222 272.876 370.027 272.876 378.345C272.875 386.663 278.782 393.468 286.002 393.468Z" fill="#B82B12"/>
<path d="M294.314 394.01C300.543 367.609 285.717 339.458 263.612 323.734C241.508 308.01 213.563 302.789 186.454 301.776L215.01 393.956L294.314 394.01Z" fill="#B82B12"/>
<path d="M306.657 512.728L287.666 400.464L217.034 400.13L195.711 513.742" stroke="#343434" stroke-width="1.0919" stroke-miterlimit="10" stroke-linecap="round" stroke-linejoin="round"/>
<path d="M344.737 400.798H207.939C206.161 400.798 204.707 399.343 204.707 397.565V396.649C204.707 394.871 206.161 393.417 207.939 393.417H344.737C346.515 393.417 347.97 394.871 347.97 396.649V397.565C347.97 399.343 346.515 400.798 344.737 400.798Z" fill="#343434"/>
<path d="M267.795 159.762C268.452 163.3 268.831 166.89 268.931 170.489C269.08 175.875 268.399 181.75 264.708 185.612C266.996 188.816 270.467 191.446 274.237 192.425C278.007 193.405 282.109 193.001 285.625 191.305C286.584 190.842 287.498 190.289 288.41 189.735C289.529 189.057 290.647 188.379 291.767 187.701C286.917 179.197 282.772 169.787 284.07 160.043C281.649 159.584 278.222 158.545 275.801 158.086C274.751 157.886 273.689 157.687 272.622 157.733C270.929 157.808 269.467 160.053 267.795 159.762Z" fill="#FF8772"/>
<path d="M286.584 177.065C284.475 171.592 283.293 165.879 284.071 160.044C281.651 159.585 278.223 158.546 275.802 158.087C275.092 157.953 274.376 157.824 273.657 157.765C273.265 166.405 278.79 174.622 286.584 177.065Z" fill="#343434"/>
<path d="M291.761 250.868L272.404 249.762C257.047 248.884 243.775 260.956 242.912 276.59C242.181 289.827 241.185 303.713 240.308 302.883C241.071 314.95 238.396 339.205 243.403 350.468C246.717 360.301 255.272 361.323 265.451 362.155C265.7 362.176 265.951 362.192 266.199 362.208L285.556 363.314C300.274 364.156 313.682 342.24 315.529 326.728C315.466 326.081 315.911 320.504 316.166 316.29C316.166 316.29 318.148 281.452 318.116 280.892C318.978 265.257 307.119 251.747 291.761 250.868Z" fill="#7F6BF4"/>
<path d="M326.251 228.418C325.918 223.578 325.286 218.782 324.655 213.97C324.076 209.553 323.386 205.05 321.879 200.792C321.19 198.844 320.319 196.817 318.983 195.177C317.809 193.737 316.319 192.662 314.644 191.73C312.199 190.365 309.552 189.388 306.969 188.291C304.743 187.945 302.361 187.819 299.769 187.724C299.266 187.706 298.755 187.689 298.235 187.67C297.939 187.661 297.639 187.651 297.336 187.639C297.232 187.637 297.127 187.633 297.021 187.63C296.771 187.622 296.519 187.612 296.267 187.604C295.258 187.567 294.22 187.523 293.147 187.466C291.774 187.392 290.4 187.305 289.026 187.211C280.401 186.619 271.803 185.71 263.154 185.47C262.299 185.447 261.439 185.427 260.569 185.415C258.195 185.383 255.787 185.401 253.379 185.508C253.307 185.512 253.236 185.514 253.164 185.517C252.083 185.568 251.003 185.636 249.926 185.724C244.504 186.172 239.172 187.152 234.349 189.09C233.582 189.4 232.791 189.72 231.99 190.063C231.922 190.092 231.855 190.12 231.788 190.149C224.588 193.216 216.477 197.656 214.807 205.239C212.452 215.929 216.718 229.433 218.601 240.042C218.614 240.116 218.628 240.189 218.64 240.264C218.724 240.744 218.81 241.232 218.9 241.723C219.429 244.686 220.027 247.819 220.67 251.078C222.481 260.29 224.65 270.496 226.656 280.6C226.661 280.62 226.664 280.64 226.669 280.658C226.958 282.104 227.242 283.547 227.519 284.986C228.586 290.487 229.584 295.909 230.426 301.074C231.681 308.772 236.194 317.413 243.721 320.207C247.947 321.777 253.293 321.407 257.728 321.732C263.727 322.17 269.736 322.489 275.75 322.59C277.906 322.627 280.065 322.636 282.221 322.619C286.442 322.582 290.664 322.429 294.873 322.113C298.87 321.814 302.841 321.435 306.734 320.478C308.202 320.118 309.652 319.692 311.079 319.204C312.278 318.793 313.629 318.413 314.619 317.612C314.893 317.393 315.148 317.158 315.388 316.908C315.854 316.43 316.259 315.9 316.605 315.335C317.291 312.735 317.873 310.103 318.565 307.522C319.12 305.461 319.694 303.408 320.26 301.35C321.539 295.945 322.88 290.542 323.97 285.095C324.468 281.703 324.791 278.293 325.104 274.872C325.568 269.773 325.957 264.667 326.239 259.553C326.809 249.189 326.967 238.781 326.251 228.418Z" fill="#F4D0B8"/>
<path d="M286.543 176.979C287.961 180.676 289.806 184.263 291.767 187.701C290.647 188.379 289.529 189.057 288.41 189.736C287.498 190.289 286.584 190.842 285.625 191.305C282.109 193.001 278.007 193.406 274.237 192.426C270.467 191.447 266.996 188.816 264.708 185.612C266.934 183.284 268.063 180.222 268.578 176.979H286.543Z" fill="#FF8772"/>
<path d="M273.837 144.036C277.271 144.787 279.16 148.4 278.669 151.64C278.179 154.88 275.856 157.714 273.234 160.012C271.917 156.063 270.985 152.584 269.669 148.636C269.175 147.152 268.836 145.21 270.245 144.266C271.039 143.736 272.908 143.833 273.837 144.036Z" fill="#343434"/>
<path d="M290.07 162.509C290.065 162.635 290.058 162.76 290.049 162.885C290.044 162.948 290.04 163.013 290.034 163.075C290.03 163.115 290.028 163.154 290.022 163.194C290.011 163.314 289.998 163.431 289.982 163.551C289.977 163.587 289.972 163.622 289.968 163.658C289.943 163.83 289.915 164.003 289.883 164.174C289.849 164.356 289.811 164.536 289.768 164.714C289.753 164.778 289.738 164.841 289.722 164.903C289.712 164.942 289.702 164.98 289.692 165.017C289.652 165.169 289.608 165.319 289.562 165.468C289.45 165.83 289.322 166.184 289.175 166.531C289.142 166.614 289.105 166.698 289.067 166.78C288.735 167.523 288.327 168.223 287.854 168.874C287.751 169.015 287.645 169.153 287.539 169.287C287.481 169.36 287.42 169.431 287.361 169.504C287.261 169.622 287.16 169.737 287.056 169.852C286.802 170.132 286.534 170.398 286.254 170.651C286.123 170.77 285.99 170.883 285.854 170.996C285.299 171.453 284.702 171.857 284.069 172.2C283.592 172.461 283.095 172.686 282.58 172.875C282.467 172.917 282.353 172.956 282.24 172.993C282.159 173.02 282.077 173.047 281.996 173.07C281.952 173.084 281.907 173.098 281.863 173.11C281.821 173.122 281.779 173.135 281.739 173.145C281.606 173.184 281.474 173.218 281.34 173.25C280.544 173.44 279.718 173.543 278.87 173.551C278.683 173.552 278.499 173.55 278.315 173.542C276.245 173.457 274.31 172.8 272.665 171.718C269.567 169.683 267.49 166.152 267.454 162.138L267.43 159.414L267.359 151.403L267.337 148.898L267.306 145.44C267.305 145.25 267.307 145.061 267.315 144.873C267.319 144.78 267.323 144.686 267.329 144.594C267.333 144.52 267.338 144.448 267.345 144.375C267.35 144.302 267.358 144.228 267.366 144.155C267.367 144.137 267.369 144.119 267.372 144.102C267.375 144.057 267.381 144.012 267.387 143.967C267.393 143.912 267.399 143.86 267.407 143.805C267.41 143.773 267.415 143.74 267.42 143.708C267.43 143.629 267.443 143.55 267.456 143.472C267.466 143.406 267.478 143.34 267.49 143.274C267.496 143.235 267.503 143.196 267.511 143.157C267.539 143.004 267.572 142.852 267.607 142.701C267.626 142.616 267.648 142.529 267.67 142.446C267.69 142.367 267.711 142.29 267.733 142.213C267.754 142.137 267.777 142.061 267.799 141.985C267.8 141.983 267.8 141.981 267.801 141.978C267.824 141.903 267.849 141.828 267.872 141.752C267.897 141.677 267.923 141.6 267.949 141.525C267.975 141.451 268.002 141.374 268.03 141.3C268.085 141.148 268.146 140.998 268.208 140.85C268.22 140.821 268.233 140.793 268.245 140.765C268.298 140.643 268.352 140.521 268.409 140.401C268.422 140.373 268.436 140.345 268.45 140.317C268.509 140.193 268.57 140.07 268.634 139.948C268.645 139.929 268.654 139.91 268.664 139.89C270.563 136.318 274.265 133.861 278.517 133.821C283.301 133.777 287.445 136.804 289.129 141.083C289.636 142.369 289.92 143.769 289.933 145.233L290.082 161.932C290.08 162.125 290.077 162.317 290.07 162.509Z" fill="#FF8772"/>
<path d="M261.164 155.468C261.186 157.918 263.154 159.885 265.56 159.863C267.966 159.841 269.9 157.838 269.878 155.388C269.856 152.938 267.887 150.971 265.481 150.993C263.074 151.015 261.142 153.019 261.164 155.468Z" fill="#FF8772"/>
<path d="M289.125 141.084C287.272 142.378 284.887 143.06 282.613 143.163C278.734 143.342 274.903 142.274 271.023 142.097C270.709 142.083 270.381 142.078 270.082 142.156C269.923 142.197 269.772 142.259 269.636 142.354L268.15 151.893L267.868 153.704C267.845 153.002 267.788 152.299 267.711 151.594C267.611 150.697 267.478 149.797 267.335 148.9L267.304 145.442C267.302 145.252 267.305 145.063 267.313 144.875C267.316 144.782 267.321 144.688 267.327 144.597C267.33 144.522 267.336 144.451 267.343 144.377C267.348 144.304 267.356 144.23 267.364 144.157C267.365 144.14 267.366 144.121 267.37 144.105C267.373 144.06 267.379 144.014 267.385 143.969C267.391 143.915 267.396 143.862 267.404 143.808C267.408 143.775 267.413 143.743 267.417 143.71C267.428 143.632 267.44 143.553 267.453 143.475C267.464 143.409 267.475 143.343 267.488 143.277C267.494 143.237 267.501 143.199 267.509 143.159C267.537 143.006 267.569 142.854 267.605 142.704C267.624 142.619 267.646 142.532 267.668 142.448C267.688 142.369 267.708 142.293 267.73 142.215C267.751 142.14 267.775 142.063 267.797 141.988C267.798 141.985 267.798 141.983 267.799 141.981C267.822 141.905 267.846 141.83 267.87 141.755C267.895 141.679 267.921 141.603 267.946 141.527C267.973 141.453 268 141.377 268.027 141.302C268.083 141.15 268.143 141.001 268.206 140.852C268.218 140.823 268.23 140.795 268.243 140.768C268.295 140.646 268.35 140.524 268.407 140.403C268.419 140.375 268.433 140.348 268.447 140.32C268.506 140.196 268.568 140.073 268.632 139.951C268.642 139.931 268.651 139.913 268.662 139.893C270.561 136.32 274.262 133.863 278.515 133.824C283.299 133.779 287.442 136.804 289.125 141.084Z" fill="#343434"/>
<path d="M267.895 138.541C266.645 139.167 265.842 140.47 265.492 141.824C265.141 143.178 265.183 144.599 265.228 145.997C265.278 147.556 265.327 149.115 265.377 150.673C266.829 151.615 268.141 153.51 268.61 155.177C272.638 149.919 274.253 142.3 272.23 135.992" fill="#343434"/>
<path d="M244.964 341.169C247.593 331.74 257.368 326.228 266.797 328.857C267.409 329.027 268.023 329.237 268.6 329.466L342.774 359.038L343.928 359.498C349.036 361.534 352.081 366.546 351.894 371.743L347.315 492.42C347.129 497.297 343.026 501.099 338.149 500.915C333.509 500.739 328.823 497.761 328.637 493.2L320.06 385.489L257.277 363.002C247.848 360.372 242.336 350.597 244.964 341.169Z" fill="#7F6BF4"/>
<path d="M318.637 326.523L392.811 356.095L393.965 356.555C399.073 358.591 402.118 363.603 401.931 368.8L397.35 489.477C397.166 494.354 393.062 498.156 388.186 497.972C383.546 497.796 379.877 494.04 379.691 489.477L375.112 368.8L384.232 381.505L307.314 360.058C297.886 357.43 292.374 347.655 295.002 338.226C297.631 328.798 307.406 323.285 316.834 325.914C317.446 326.084 318.059 326.293 318.637 326.523Z" fill="#7F6BF4"/>
<path d="M390.392 486.149C393.262 484.614 395.742 481.855 397.668 479.109C399.228 481.937 401.524 484.336 404.349 485.843C408.521 488.067 413.382 488.397 417.917 489.685C426.766 492.199 434.473 498.626 438.645 506.971H378.759V486.358C382.378 488.215 386.578 488.188 390.392 486.149Z" fill="#343434"/>
<path d="M390.392 486.149C393.259 484.617 395.735 481.863 397.66 479.121C399.225 481.944 401.527 484.337 404.349 485.842C408.521 488.066 413.382 488.396 417.917 489.684C426.766 492.198 434.473 498.625 438.645 506.97H378.759V486.357C382.378 488.215 386.578 488.189 390.392 486.149Z" fill="#343434"/>
<path d="M437.295 510.211H378.993C377.334 510.211 375.977 508.828 375.977 507.137C375.977 505.446 377.334 504.062 378.993 504.062H437.295C438.953 504.062 440.311 505.446 440.311 507.137C440.309 508.827 438.953 510.211 437.295 510.211Z" fill="#343434"/>
<path d="M400.364 503.629C400.364 503.629 397.112 490.623 378.415 491.842" stroke="#B7A091" stroke-width="1.0511" stroke-miterlimit="10" stroke-linecap="round" stroke-linejoin="round"/>
<path d="M340.356 490.073C343.226 488.539 345.706 485.779 347.631 483.033C349.19 485.862 351.487 488.26 354.313 489.767C358.484 491.991 363.346 492.322 367.88 493.61C376.73 496.124 384.437 502.552 388.608 510.897H328.722V490.283C332.341 492.139 336.542 492.113 340.356 490.073Z" fill="#343434"/>
<path d="M340.356 490.074C343.222 488.541 345.699 485.787 347.623 483.045C349.188 485.869 351.491 488.262 354.313 489.766C358.484 491.99 363.346 492.321 367.88 493.609C376.73 496.123 384.437 502.551 388.608 510.896H328.722V490.282C332.341 492.14 336.542 492.113 340.356 490.074Z" fill="#343434"/>
<path d="M387.257 514.135H328.955C327.296 514.135 325.939 512.753 325.939 511.061C325.939 509.37 327.296 507.986 328.955 507.986H387.257C388.916 507.986 390.273 509.37 390.273 511.061C390.273 512.752 388.916 514.135 387.257 514.135Z" fill="#343434"/>
<path d="M350.327 507.553C350.327 507.553 347.076 494.548 328.379 495.767" stroke="#B7A091" stroke-width="1.0511" stroke-miterlimit="10" stroke-linecap="round" stroke-linejoin="round"/>
<path d="M281.337 161.585C284.17 161.585 286.466 158.453 286.466 154.589H276.209C276.21 158.453 278.506 161.585 281.337 161.585Z" fill="#FFF8F3"/>
<path d="M264.707 185.613L284.446 239.069L295.341 187.466L264.707 185.613Z" fill="#F4D0B8"/>
<path d="M291.26 190.336H269.324C266.573 190.336 264.321 188.085 264.321 185.333C264.321 182.582 266.573 180.33 269.324 180.33H291.26C294.011 180.33 296.263 182.582 296.263 185.333C296.263 188.085 294.011 190.336 291.26 190.336Z" fill="#F4D0B8"/>
<path d="M250.034 221.484L175.566 296.367L165.345 272.851L262.804 274.689C270.589 274.837 276.781 281.265 276.633 289.05C276.486 296.835 270.057 303.027 262.273 302.88L164.813 301.041C157.034 300.895 150.848 294.47 150.994 286.692C151.055 283.429 152.222 280.445 154.131 278.092L154.592 277.523L221.103 195.492C227.875 187.138 240.136 185.858 248.49 192.63C256.843 199.402 258.123 211.663 251.351 220.016C250.938 220.527 250.485 221.027 250.034 221.484Z" fill="#F4D0B8"/>
<path d="M294.358 278.017L322.745 277.397C320.829 279.609 318.376 281.335 315.985 283.495C314.172 285.133 316.491 287.588 318.431 286.664C323.76 284.126 328.627 280.676 334.093 278.418C334.739 278.151 338.084 278.907 338.265 278.363L350.798 276.783L305.385 223.892C304.995 223.435 304.605 222.935 304.247 222.425C298.4 214.072 299.506 201.811 306.718 195.039C313.93 188.267 324.517 189.548 330.363 197.901L387.789 279.932L388.187 280.501C389.834 282.853 390.841 285.837 390.895 289.1C391.021 296.879 385.68 303.303 378.964 303.45L294.818 305.289C288.097 305.436 282.545 299.244 282.418 291.459C282.291 283.675 287.637 277.245 294.358 278.017Z" fill="#F4D0B8"/>
<path d="M337.05 304.196C344.277 303.631 352.062 301.724 356.132 297.83C357.258 296.752 357.888 295.138 358.261 293.658C358.778 291.611 358.806 289.426 358.257 287.383C357.593 284.912 356.073 282.787 354.045 281.243C351.047 278.962 347.245 277.942 343.565 277.464C342.016 277.262 340.453 277.159 338.892 277.123C336.545 277.07 334.513 277.384 332.335 278.255C330.905 278.828 329.474 279.401 328.043 279.974C324.518 281.386 320.993 282.798 317.468 284.209C315.894 284.839 314.32 285.47 312.747 286.1C309.972 286.478 309.405 283.718 309.468 291.502C309.532 299.287 312.323 305.479 315.702 305.332L337.076 304.403C337.067 304.334 336.981 304.202 337.05 304.196Z" fill="#FF8772"/>
<path d="M258.637 284.082L234.295 279.164C220.043 280.677 211.376 291.603 207.475 301.846L250.21 302.88C256.281 303.027 254.495 292.629 261.41 289.05C270.57 284.311 275.781 287.956 258.637 284.082Z" fill="#FF8772"/>
<path d="M284.183 142.085C288.177 142.428 292.232 139.746 293.48 135.938C293.906 134.641 294.029 133.264 294.072 131.9C294.114 130.528 294.074 129.136 293.695 127.816C293.061 125.614 291.516 123.764 289.704 122.363C287.892 120.961 285.809 119.96 283.743 118.97C284.095 120.274 283.071 122.21 282.41 123.386C280.932 126.014 277.585 126.85 274.59 127.203C271.594 127.557 268.309 127.8 266.125 129.88C264.392 131.529 263.728 134.174 264.348 136.486C264.967 138.798 266.794 140.717 269.024 141.585" fill="#343434"/>
<path d="M295.001 338.225L342.774 359.037" stroke="#472A1C" stroke-width="1.3047" stroke-miterlimit="10" stroke-linecap="round" stroke-linejoin="round"/>
<path d="M287.039 290.312C286.836 293.037 273.092 292.823 273.092 292.823C273.092 292.823 293.94 309.963 291.856 312.858C291.773 312.975 291.659 313.055 291.533 313.119C290.627 312.944 289.718 312.786 288.809 312.652C283.635 310.303 274.153 301.884 274.153 301.884C274.153 301.884 277.205 304.949 280.356 308.618C277.249 307.536 274.001 306.965 270.69 306.745C270.298 306.265 270.076 305.985 270.076 305.985C270.076 305.985 270.285 306.262 270.635 306.741C265.819 306.425 260.869 306.835 256.027 307.443C250.806 300.722 243.402 290.374 243.402 290.374L251.613 283.273C251.613 283.273 287.381 285.715 287.039 290.312Z" fill="#FF8772"/>
<path d="M272.31 311.581C272.174 313.525 270.301 315.034 268.324 315.327C266.348 315.619 264.341 314.932 262.58 313.991C258.643 311.886 255.483 308.421 253.802 304.365C252.664 301.619 252.355 298.104 254.525 296.06C256.359 294.332 259.249 294.318 261.789 294.66C267.841 295.474 279.26 298.403 281.943 304.648C284.247 310.009 276.059 317.633 272.31 311.581Z" fill="#FF8772"/>
<path d="M289.254 291.822C289.457 294.546 303.201 294.332 303.201 294.332C303.201 294.332 282.353 311.472 284.437 314.367C284.52 314.484 284.634 314.565 284.76 314.628C285.666 314.453 286.573 314.295 287.484 314.161C292.658 311.812 302.14 303.394 302.14 303.394C302.14 303.394 299.088 306.458 295.937 310.128C299.043 309.045 302.291 308.475 305.603 308.254C305.995 307.774 306.217 307.494 306.217 307.494C306.217 307.494 306.007 307.772 305.658 308.251C310.474 307.934 315.424 308.345 320.266 308.952C325.487 302.231 332.891 291.882 332.891 291.882L322.29 283.872C322.29 283.872 288.912 287.224 289.254 291.822Z" fill="#FF8772"/>
<path d="M303.984 313.09C304.12 315.034 305.993 316.544 307.97 316.836C309.946 317.128 311.953 316.441 313.713 315.501C317.65 313.395 320.81 309.93 322.491 305.874C323.628 303.128 323.938 299.613 321.768 297.569C319.934 295.841 317.044 295.827 314.504 296.169C308.452 296.984 297.033 299.913 294.35 306.157C292.046 311.518 300.235 319.142 303.984 313.09Z" fill="#FF8772"/>
<path d="M293.194 189.295C293.246 191.205 291.867 192.995 290.083 193.679C288.298 194.364 286.221 194.033 284.576 193.061C283.72 192.555 282.931 191.84 282.616 190.896C282.391 192.125 281.291 193.538 280.165 194.078C279.038 194.619 277.73 194.699 276.499 194.484C273.159 193.902 270.346 191.032 269.83 187.682" stroke="#343434" stroke-width="0.8616" stroke-miterlimit="10" stroke-linecap="round" stroke-linejoin="round"/>
<path d="M287.468 194.22C287.246 196.029 286.337 197.745 284.963 198.943L295.002 227.912L289.891 237L280.804 229.616L281.939 198.947C281.939 198.947 278.531 198.191 277.964 194.594C277.964 194.594 281.939 194.405 282.508 190.997C282.508 190.997 284.779 193.836 287.051 193.836L287.468 194.22Z" fill="#343434"/>
<path d="M562.681 186.78C577.305 186.78 589.161 174.925 589.161 160.301C589.161 145.676 577.305 133.821 562.681 133.821C548.057 133.821 536.202 145.676 536.202 160.301C536.202 174.925 548.057 186.78 562.681 186.78Z" fill="#343434"/>
<path d="M532.939 172.339C532.939 172.339 554.837 198.433 579.286 175.594L556.112 151.093C556.112 151.093 555.762 176.661 532.939 172.339Z" fill="#343434"/>
<path d="M566.586 156.042C566.421 156.087 566.283 156.158 566.204 156.281C566.325 156.189 566.454 156.113 566.586 156.042Z" fill="#343434"/>
<path d="M464.414 510.266L483.373 390.076L554.005 389.717L575.359 511.634" stroke="#343434" stroke-width="1.1022" stroke-miterlimit="10" stroke-linecap="round" stroke-linejoin="round"/>
<path d="M548.355 383.979H461.199C453.98 383.979 448.073 377.173 448.073 368.856C448.073 360.537 453.98 353.733 461.199 353.733H548.355C555.575 353.733 561.482 360.539 561.482 368.856C561.482 377.173 555.575 383.979 548.355 383.979Z" fill="#B82B12"/>
<path d="M534.187 231.886L472.716 258.177L470.83 258.983C466.007 261.045 460.485 259.147 457.892 254.745L409.619 173.055C408.659 171.429 409.198 169.333 410.823 168.373C412.278 167.513 414.111 167.857 415.168 169.102L476.592 241.425L461.768 237.995L517.323 200.799C525.473 195.343 536.504 197.526 541.96 205.676C547.417 213.826 545.234 224.857 537.084 230.313C536.18 230.92 535.15 231.466 534.187 231.886Z" fill="#A83500"/>
<path d="M541.96 205.677C536.504 197.527 525.473 195.344 517.323 200.801L469.361 232.912L436.543 194.271C434.455 198.354 431.8 202.036 428.719 205.376L457.892 254.745C460.485 259.146 466.007 261.045 470.83 258.983L472.716 258.177L534.187 231.886C535.15 231.468 536.18 230.92 537.084 230.315C545.234 224.858 547.417 213.827 541.96 205.677Z" fill="#FF9E00"/>
<path d="M406.216 514.46H455.031L461.087 513.895L470.137 514.867L470.736 492.984L471.745 479.138L454.959 480.004C455.473 484.918 453.358 490.144 449.674 493.85C449.385 494.139 449.087 494.423 448.78 494.695C448.472 494.965 448.156 495.223 447.83 495.474C447.013 496.098 446.147 496.649 445.234 497.121C444.83 497.328 444.426 497.52 444.013 497.699C443.875 497.758 443.738 497.814 443.6 497.868C443.462 497.928 443.326 497.983 443.187 498.033C442.931 498.134 442.674 498.226 442.417 498.317C442.114 498.423 441.812 498.524 441.504 498.616C441.385 498.657 441.261 498.693 441.138 498.726C440.978 498.781 440.812 498.827 440.647 498.868C440.514 498.91 440.381 498.946 440.248 498.979C440.093 499.025 439.936 499.066 439.775 499.107C439.633 499.144 439.495 499.18 439.353 499.213C438.825 499.346 438.297 499.469 437.77 499.589C437.683 499.612 437.596 499.631 437.509 499.649C435.5 500.099 433.476 500.498 431.504 501.067C422.545 503.648 410.841 506.422 406.216 514.46Z" fill="#343434"/>
<path d="M403.431 387.535C400.117 391.808 393.673 393.735 388.157 392.106C384.418 391 381.343 388.524 377.919 386.728C371.237 383.224 363.018 382.402 355.814 384.518L391.403 417.179L413.733 396.424L403.431 387.535Z" fill="#343434"/>
<path d="M544.219 268.66C541.656 297.503 536.883 326.186 529.944 354.442H620.07C624.125 339.569 620.522 322.082 611.796 308.929C606.972 301.659 600.465 295.396 595.444 288.235C590.424 281.073 586.88 272.45 588.97 264.198L544.219 268.66Z" fill="#AE4E3E"/>
<path d="M611.797 308.929C606.974 301.659 600.466 295.397 595.446 288.235C595.146 287.808 594.854 287.376 594.566 286.94C589.507 286.995 584.448 287.006 579.388 286.962C577.202 286.944 575.017 286.915 572.831 286.874H542.304C539.547 309.575 535.421 332.142 529.945 354.442H620.071C624.127 339.569 620.524 322.084 611.797 308.929Z" fill="#343434"/>
<path d="M522.698 199.175H601.006C604.908 206.004 606.216 214.196 603.841 222.854C600.765 234.058 595.431 244.28 594.414 255.992C593.745 263.698 594.941 271.58 593.697 279.259C591.071 295.469 580.048 300.475 564.326 301.03C550.868 301.506 538.628 299.109 531.379 286.465C524.377 274.253 526.683 260.192 523.165 247.06C520.356 236.578 517.794 226.165 518.288 215.07C518.558 208.945 520.142 203.656 522.698 199.175Z" fill="#FF9E00"/>
<path d="M580.49 166.155C580.325 168.77 578.071 170.756 575.456 170.591C572.842 170.426 570.856 168.172 571.021 165.558C571.185 162.943 573.439 160.957 576.054 161.122C578.668 161.287 580.654 163.54 580.49 166.155Z" fill="#A83500"/>
<path d="M476.042 486.696C464.696 485.89 453.434 481.896 442.059 481.699L463.351 352.596C464.729 344.447 471.786 338.481 480.051 338.481H600.254C609.608 338.481 617.191 346.064 617.191 355.418C617.191 364.772 609.608 372.355 600.254 372.355H494.365L476.042 486.696Z" fill="#343434"/>
<path d="M392.892 376.559L484.579 309.722C489.082 306.439 494.964 305.381 500.422 306.871L608.52 336.374C618.005 338.963 623.48 348.349 620.749 357.338C618.017 366.327 608.112 371.518 598.627 368.926L499.211 341.793L415.907 402.519C408.035 394.046 400.766 385.043 392.892 376.559Z" fill="#343434"/>
<path d="M620.156 213.707L632.474 279.241L632.842 281.198C633.857 286.597 630.478 291.815 625.255 293.209L538.368 316.175C536.059 316.785 533.693 315.408 533.083 313.1C532.533 311.018 533.6 308.888 535.509 308.044L617.653 271.581L610.434 285.55L586.205 223.426C582.646 214.302 587.158 204.019 596.283 200.461C605.408 196.902 615.69 201.414 619.249 210.539C619.644 211.552 619.955 212.677 620.156 213.707Z" fill="#A83500"/>
<path d="M632.843 281.198L632.475 279.241L620.157 213.707C619.956 212.677 619.645 211.552 619.25 210.539C615.691 201.414 605.409 196.902 596.284 200.461C587.16 204.019 582.647 214.302 586.206 223.426L606.856 276.374L579.224 288.64C582.618 293.128 585.073 298.073 586.65 303.415L625.258 293.211C630.479 291.816 633.858 286.598 632.843 281.198Z" fill="#FF9E00"/>
<path d="M516.618 308.22C516.476 310.183 526.318 311.473 526.318 311.473C526.318 311.473 509.618 321.495 510.801 323.778C510.849 323.87 510.922 323.939 511.006 323.998C511.671 323.968 512.336 323.952 513.001 323.951C516.945 322.82 524.605 317.818 524.605 317.818C524.605 317.818 522.102 319.681 519.466 321.964C521.799 321.518 524.18 321.453 526.569 321.644C526.9 321.343 527.088 321.167 527.088 321.167C527.088 321.167 526.909 321.343 526.609 321.647C530.083 321.928 533.577 322.74 536.972 323.681C541.41 319.441 547.79 312.844 547.79 312.844L537.883 306.801C537.883 306.801 516.858 304.908 516.618 308.22Z" fill="#A83500"/>
<path d="M524.902 324.919C524.795 326.318 525.974 327.591 527.356 328.006C528.737 328.421 530.244 328.143 531.6 327.658C534.635 326.571 537.258 324.433 538.885 321.72C539.987 319.884 540.579 317.412 539.242 315.727C538.114 314.303 536.05 313.991 534.2 313.968C529.79 313.912 521.323 314.801 518.749 318.969C516.54 322.546 521.587 328.837 524.902 324.919Z" fill="#A83500"/>
<path d="M421.173 155.164C419.356 154.974 417.862 164.039 417.862 164.039C417.862 164.039 409.068 148.288 406.915 149.313C406.828 149.355 406.762 149.42 406.705 149.495C406.714 150.112 406.709 150.728 406.689 151.343C407.618 155.026 412.028 162.263 412.028 162.263C412.028 162.263 410.375 159.891 408.336 157.383C408.679 159.555 408.667 161.759 408.419 163.964C408.688 164.278 408.846 164.458 408.846 164.458C408.846 164.458 408.688 164.288 408.415 164C408.05 167.206 407.192 170.412 406.216 173.525C410.016 177.759 415.941 183.86 415.941 183.86L421.588 179.304C421.588 179.304 424.239 155.487 421.173 155.164Z" fill="#A83500"/>
<path d="M405.432 162.322C404.137 162.18 402.92 163.233 402.493 164.499C402.065 165.764 402.279 167.165 402.688 168.436C403.605 171.275 405.508 173.767 407.977 175.355C409.647 176.43 411.922 177.052 413.525 175.868C414.88 174.867 415.233 172.968 415.31 171.257C415.495 167.179 414.926 159.319 411.139 156.812C407.885 154.657 401.896 159.136 405.432 162.322Z" fill="#A83500"/>
<path d="M522.291 331.399C515.81 329.35 508.958 327.637 502.105 325.924C501.534 325.924 500.392 326.495 499.25 327.066C489.542 334.49 480.406 340.772 470.698 347.624C456.993 357.903 444.43 367.04 430.724 377.319C426.156 380.745 421.587 383.6 417.019 386.455" stroke="#F5F5F3" stroke-width="0.9846" stroke-miterlimit="10"/>
<path d="M595.613 350.714C583.462 347.693 571.538 343.694 559.262 341.238" stroke="#F5F5F3" stroke-width="0.9846" stroke-miterlimit="10"/>
<path d="M540.044 384.522C533.814 358.12 548.641 329.969 570.746 314.245C592.851 298.521 620.795 293.3 647.903 292.288L619.347 384.467L540.044 384.522Z" fill="#B82B12"/>
<path d="M577.29 316.289H521.229H253.844C249.976 316.289 246.811 313.76 246.811 310.671C246.811 307.581 249.976 305.053 253.844 305.053H577.29C581.159 305.053 584.323 307.582 584.323 310.671C584.325 313.76 581.159 316.289 577.29 316.289Z" fill="#914B29"/>
<path d="M553 194.94C556.789 190.331 558.755 183.657 558.871 177.472L571.162 170.685C568.331 181.346 572.51 194.601 579.286 198.593C578.72 199.333 578.086 200.017 577.401 200.653C573.168 204.588 566.921 206.503 561.413 206.35C556.197 206.213 550.823 204.347 546.947 200.653C546.492 200.217 546.057 199.755 545.644 199.272C548.411 198.679 550.954 197.43 553 194.94Z" fill="#A83500"/>
<path d="M565.795 176.34C564.965 179.981 561.753 182.758 558.252 183.137C558.699 180.868 558.908 178.562 558.867 176.34H565.795Z" fill="#343434"/>
<path d="M555.918 178.619C557.027 179.063 558.227 179.344 559.477 179.424C560.367 179.479 561.242 179.435 562.091 179.29C562.946 179.149 563.769 178.915 564.555 178.599C568.578 176.965 571.546 173.137 571.836 168.534L572.23 162.312L572.9 151.677C573.099 148.479 571.975 145.491 570.001 143.251C568.027 141.012 565.199 139.518 562.005 139.317C556.383 138.962 551.396 142.71 550.011 147.973C549.816 148.688 549.69 149.443 549.645 150.212L548.76 164.196L548.58 167.064C548.257 172.208 551.365 176.805 555.918 178.619Z" fill="#A83500"/>
<path d="M586.205 223.426L594.893 246.167" stroke="#343434" stroke-width="0.8616" stroke-miterlimit="10" stroke-linecap="round" stroke-linejoin="round"/>
<path d="M518.286 215.069L521.668 237.863" stroke="#343434" stroke-width="0.8616" stroke-miterlimit="10" stroke-linecap="round" stroke-linejoin="round"/>
<path d="M527.7 513.177L546.692 390.976L617.323 390.642L638.646 511.824" stroke="#343434" stroke-width="1.0919" stroke-miterlimit="10" stroke-linecap="round" stroke-linejoin="round"/>
<path d="M489.62 391.309H626.418C628.196 391.309 629.65 389.854 629.65 388.076V387.161C629.65 385.382 628.196 383.928 626.418 383.928H489.62C487.842 383.928 486.387 385.382 486.387 387.161V388.076C486.388 389.854 487.843 391.309 489.62 391.309Z" fill="#343434"/>
<path d="M562.684 165.585V166.751C562.684 169.409 560.51 171.583 557.852 171.583C555.195 171.583 553.021 169.409 553.021 166.751V165.585H562.684Z" fill="#FCEFEB"/>
<path d="M548.762 164.197C550.566 164.117 552.341 163.457 553.72 162.302C555.615 160.724 556.389 158.6 556.299 156.171C556.589 159.709 559.032 163.008 562.355 164.277C565.659 165.541 569.652 164.727 572.23 162.313L572.9 151.678C573.099 148.48 571.975 145.492 570.001 143.252C568.027 141.013 565.198 139.519 562.005 139.318C556.382 138.963 551.396 142.711 550.011 147.974C549.816 148.689 549.69 149.444 549.645 150.213L548.762 164.197Z" fill="#343434"/>
<path d="M412.757 160.921C412.757 160.921 416.256 167.919 413.423 171.416" stroke="#343434" stroke-width="0.8616" stroke-miterlimit="10" stroke-linecap="round" stroke-linejoin="round"/>
<path d="M102.89 513.54C316.075 513.544 528.652 513.544 742.044 513.54" stroke="#343434" stroke-width="2.1156" stroke-miterlimit="10" stroke-linecap="round" stroke-linejoin="round"/>
<path d="M402.802 304.34L416.949 255.834C418.448 250.695 414.657 245.538 409.382 245.538H332.429C329.237 245.538 326.358 247.492 325.137 250.488L304.378 303.527" fill="#7F6BF4"/>
<path d="M268.24 305.702H401.347C402.543 305.702 403.521 304.723 403.521 303.528C403.521 302.332 402.542 301.354 401.347 301.354H268.24C267.044 301.354 266.066 302.332 266.066 303.528C266.065 304.724 267.044 305.702 268.24 305.702Z" fill="#343434"/>
<path opacity="0.73" d="M376.102 279.072C374.346 286.033 369.556 290.828 365.404 289.78C361.251 288.733 359.309 282.24 361.065 275.278C362.821 268.317 367.611 263.522 371.764 264.57C375.917 265.617 377.859 272.11 376.102 279.072Z" stroke="white" stroke-width="0.4998" stroke-miterlimit="10" stroke-linecap="round" stroke-linejoin="round"/>
<path d="M443.648 305.895L429.501 257.388C428.002 252.249 431.793 247.092 437.068 247.092H514.019C517.213 247.092 520.091 249.046 521.312 252.043L542.071 305.081" fill="#343434"/>
<path d="M578.21 307.257H445.103C443.907 307.257 442.929 306.278 442.929 305.083C442.929 303.888 443.907 302.91 445.103 302.91H578.21C579.406 302.91 580.384 303.888 580.384 305.083C580.384 306.278 579.406 307.257 578.21 307.257Z" fill="#343434"/>
<path opacity="0.73" d="M470.347 280.626C472.103 287.588 476.892 292.382 481.045 291.334C485.198 290.287 487.141 283.794 485.384 276.832C483.627 269.871 478.838 265.077 474.685 266.124C470.533 267.173 468.59 273.665 470.347 280.626Z" stroke="white" stroke-width="0.4998" stroke-miterlimit="10" stroke-linecap="round" stroke-linejoin="round"/>
<path d="M390.569 177.751H377.096C371.955 177.751 367.787 173.583 367.787 168.442V140.99H400.704V167.616C400.704 173.214 396.166 177.751 390.569 177.751Z" fill="#343434"/>
<path d="M407.981 168.197H402.014C396.506 168.197 391.999 163.69 391.999 158.181C391.999 152.673 396.506 148.166 402.014 148.166H407.981C413.49 148.166 417.997 152.673 417.997 158.181C417.997 163.689 413.49 168.197 407.981 168.197Z" stroke="#343434" stroke-width="1.8446" stroke-miterlimit="10" stroke-linecap="round" stroke-linejoin="round"/>
<path d="M283.836 304.797H297.308C302.449 304.797 306.617 300.629 306.617 295.488V268.037H273.701V294.662C273.701 300.26 278.239 304.797 283.836 304.797Z" fill="#343434"/>
<path d="M266.423 295.243H272.39C277.899 295.243 282.406 290.737 282.406 285.228C282.406 279.719 277.899 275.212 272.39 275.212H266.423C260.914 275.212 256.408 279.719 256.408 285.228C256.408 290.736 260.914 295.243 266.423 295.243Z" stroke="#343434" stroke-width="1.8446" stroke-miterlimit="10" stroke-linecap="round" stroke-linejoin="round"/>
<path d="M110.135 385.809C110.135 390.039 106.706 393.467 102.477 393.467C98.2475 393.467 94.8185 390.039 94.8185 385.809C94.8185 381.58 98.2475 378.151 102.477 378.151C106.706 378.151 110.135 381.58 110.135 385.809Z" fill="#E5E3FC"/>
<path d="M84.5734 425.552C84.5734 428.102 82.5063 430.167 79.9566 430.167C77.407 430.167 75.341 428.1 75.341 425.552C75.341 423.002 77.4081 420.935 79.9566 420.935C82.5063 420.935 84.5734 423.002 84.5734 425.552Z" fill="#E5E3FC"/>
<path d="M207.475 25.9146C207.475 29.1637 204.841 31.7969 201.593 31.7969C198.344 31.7969 195.711 29.1637 195.711 25.9146C195.711 22.6654 198.344 20.0322 201.593 20.0322C204.842 20.0311 207.475 22.6654 207.475 25.9146Z" fill="#E5E3FC"/>
<path d="M532.939 83.4355C532.939 87.0153 530.038 89.9164 526.458 89.9164C522.879 89.9164 519.977 87.0153 519.977 83.4355C519.977 79.8569 522.878 76.9546 526.458 76.9546C530.038 76.9546 532.939 79.8558 532.939 83.4355Z" fill="#E5E3FC"/>
<path d="M580.072 106.706C581.278 100.142 576.936 93.8434 570.372 92.6368C563.808 91.4302 557.509 95.7728 556.303 102.336C555.096 108.9 559.439 115.199 566.003 116.405C572.566 117.612 578.865 113.269 580.072 106.706Z" fill="#E5E3FC"/>
<path d="M496.042 171.583C497.896 171.583 499.4 170.079 499.4 168.224C499.4 166.37 497.896 164.866 496.042 164.866C494.187 164.866 492.683 166.37 492.683 168.224C492.683 170.079 494.187 171.583 496.042 171.583Z" fill="#E5E3FC"/>
<path d="M782.362 265.281C782.362 268.19 780.004 270.548 777.095 270.548C774.185 270.548 771.827 268.19 771.827 265.281C771.827 262.371 774.185 260.013 777.095 260.013C780.004 260.014 782.362 262.373 782.362 265.281Z" fill="#E5E3FC"/>
<path d="M830.197 294.494C833.544 291.147 833.544 285.721 830.197 282.374C826.85 279.027 821.424 279.027 818.077 282.374C814.73 285.721 814.73 291.147 818.077 294.494C821.424 297.841 826.85 297.841 830.197 294.494Z" fill="#E5E3FC"/>
<path d="M808.824 249.799C808.824 252.128 806.936 254.016 804.607 254.016C802.278 254.016 800.391 252.127 800.391 249.799C800.391 247.47 802.279 245.583 804.607 245.583C806.936 245.583 808.824 247.47 808.824 249.799Z" fill="#E5E3FC"/>
<path d="M832.417 382.882C832.417 385.166 830.565 387.018 828.281 387.018C825.997 387.018 824.144 385.166 824.144 382.882C824.144 380.598 825.997 378.745 828.281 378.745C830.566 378.745 832.417 380.596 832.417 382.882Z" fill="#E5E3FC"/>
<path d="M519.782 470.616C524.433 468.679 526.633 463.338 524.696 458.688C522.758 454.037 517.418 451.837 512.767 453.774C508.117 455.712 505.917 461.052 507.854 465.703C509.791 470.353 515.132 472.553 519.782 470.616Z" fill="#E5E3FC"/>
<path d="M424.882 456.202C432.272 456.202 438.263 450.211 438.263 442.821C438.263 435.43 432.272 429.439 424.882 429.439C417.491 429.439 411.5 435.43 411.5 442.821C411.5 450.211 417.491 456.202 424.882 456.202Z" fill="#E5E3FC"/>
<path d="M433.085 415.003C435.496 415.003 437.451 413.048 437.451 410.637C437.451 408.225 435.496 406.271 433.085 406.271C430.674 406.271 428.719 408.225 428.719 410.637C428.719 413.048 430.674 415.003 433.085 415.003Z" fill="#E5E3FC"/>
</g>
<defs>
<filter id="filter0_d_138_2609" x="-5.38715" y="0.0322266" width="880.346" height="574.835" filterUnits="userSpaceOnUse" color-interpolation-filters="sRGB">
<feFlood flood-opacity="0" result="BackgroundImageFix"/>
<feColorMatrix in="SourceAlpha" type="matrix" values="0 0 0 0 0 0 0 0 0 0 0 0 0 0 0 0 0 0 127 0" result="hardAlpha"/>
<feOffset dy="20"/>
<feGaussianBlur stdDeviation="20"/>
<feComposite in2="hardAlpha" operator="out"/>
<feColorMatrix type="matrix" values="0 0 0 0 0.196078 0 0 0 0 0.231373 0 0 0 0 0.309804 0 0 0 0.1 0"/>
<feBlend mode="normal" in2="BackgroundImageFix" result="effect1_dropShadow_138_2609"/>
<feBlend mode="normal" in="SourceGraphic" in2="effect1_dropShadow_138_2609" result="shape"/>
</filter>
</defs>
</svg>
