<svg width="194" height="180" viewBox="0 0 194 180" fill="none" xmlns="http://www.w3.org/2000/svg">
<g filter="url(#filter0_d_138_3625)">
<path d="M153.874 110.438H134.878V139.225H153.874V110.438Z" fill="#EA5436"/>
<path d="M49.3635 111.585H41.4055V136.967H49.3635V111.585Z" fill="#EA5436"/>
<path d="M44.9601 122.577L40 88.7092L40.5812 88.6243L45.0184 118.923L50.1897 90.08L50.7678 90.1839L44.9601 122.577Z" fill="#EA5436"/>
<path d="M45.2814 85.0808L44.6941 85.0876L45.0889 119.119L45.6762 119.112L45.2814 85.0808Z" fill="#EA5436"/>
<path d="M147.616 39.3342H93.3897V67.2998H147.616V39.3342Z" fill="#C1D8DB"/>
<path d="M143.345 45.9636H131.519V56.6173H143.345V45.9636Z" fill="#EDFBFC"/>
<path d="M129.892 45.9636H122.192V56.6173H129.892V45.9636Z" fill="#EDFBFC"/>
<path d="M119.919 45.9636H108.745V63.0994H119.919V45.9636Z" fill="#EDFBFC"/>
<path d="M143.261 58.5886H122.192V59.1819H143.261V58.5886Z" fill="#EDFBFC"/>
<path d="M143.261 59.8943H122.192V60.4882H143.261V59.8943Z" fill="#EDFBFC"/>
<path d="M143.261 61.2007H122.192V61.7933H143.261V61.2007Z" fill="#EDFBFC"/>
<path d="M143.261 62.5061H122.192V63.0994H143.261V62.5061Z" fill="#EDFBFC"/>
<path d="M106.634 45.9636H96.7406V46.5569H106.634V45.9636Z" fill="#EDFBFC"/>
<path d="M106.634 47.2693H96.7406V47.8622H106.634V47.2693Z" fill="#EDFBFC"/>
<path d="M106.634 48.5757H96.7406V49.1686H106.634V48.5757Z" fill="#EDFBFC"/>
<path d="M106.634 49.8809H96.7406V50.4735H106.634V49.8809Z" fill="#EDFBFC"/>
<path d="M139.21 41.0776H100.654V42.859H139.21V41.0776Z" fill="#EDFBFC"/>
<path d="M146.165 41.0776H140.808V42.859H146.165V41.0776Z" fill="#EDFBFC"/>
<path d="M99.7925 41.9678C99.7925 42.3136 99.5119 42.5943 99.1661 42.5943C98.8203 42.5943 98.5399 42.3139 98.5399 41.9678C98.5399 41.622 98.82 41.3423 99.1661 41.3423C99.5116 41.3426 99.7925 41.622 99.7925 41.9678Z" fill="#EDFBFC"/>
<path d="M98.0028 41.9678C98.0028 42.3136 97.7221 42.5943 97.3776 42.5943C97.0318 42.5943 96.7508 42.3139 96.7508 41.9678C96.7508 41.622 97.0318 41.3423 97.3776 41.3423C97.7221 41.3426 98.0028 41.622 98.0028 41.9678Z" fill="#EDFBFC"/>
<path d="M96.2143 41.9678C96.2143 42.3136 95.9337 42.5943 95.5879 42.5943C95.2418 42.5943 94.9621 42.3139 94.9621 41.9678C94.9621 41.622 95.2415 41.3423 95.5879 41.3423C95.9337 41.3426 96.2143 41.622 96.2143 41.9678Z" fill="#EDFBFC"/>
<path d="M117.618 52.7656H63.3925V80.7312H117.618V52.7656Z" fill="#D0E6EA"/>
<path d="M113.347 60.8596H92.1942V69.7046H113.347V60.8596Z" fill="#EDFBFC"/>
<path d="M78.1705 60.4578H67.3792V71.6755H78.1705V60.4578Z" fill="#EDFBFC"/>
<path d="M90.6126 60.4578H79.8213V63.1785H90.6126V60.4578Z" fill="#EDFBFC"/>
<path d="M90.6126 74.1135H67.5221V76.2407H90.6126V74.1135Z" fill="#EDFBFC"/>
<path d="M113.264 71.6755H92.1942V72.2685H113.264V71.6755Z" fill="#EDFBFC"/>
<path d="M113.264 72.9807H92.1942V73.5743H113.264V72.9807Z" fill="#EDFBFC"/>
<path d="M113.264 74.2871H92.1942V74.881H113.264V74.2871Z" fill="#EDFBFC"/>
<path d="M113.264 75.5933H92.1942V76.1862H113.264V75.5933Z" fill="#EDFBFC"/>
<path d="M90.6166 64.6997H79.8213V65.2933H90.6166V64.6997Z" fill="#EDFBFC"/>
<path d="M90.6166 66.0054H79.8213V66.5989H90.6166V66.0054Z" fill="#EDFBFC"/>
<path d="M90.6166 67.3115H79.8213V67.9054H90.6166V67.3115Z" fill="#EDFBFC"/>
<path d="M90.6166 68.6174H79.8213V69.2104H90.6166V68.6174Z" fill="#EDFBFC"/>
<path d="M109.212 54.509H70.6562V56.2907H109.212V54.509Z" fill="#EDFBFC"/>
<path d="M116.167 54.509H110.811V56.2907H116.167V54.509Z" fill="#EDFBFC"/>
<path d="M69.7947 55.3992C69.7947 55.7456 69.5147 56.026 69.1686 56.026C68.8225 56.026 68.5421 55.7456 68.5421 55.3992C68.5421 55.0537 68.8225 54.7737 69.1686 54.7737C69.5147 54.7737 69.7947 55.0534 69.7947 55.3992Z" fill="#EDFBFC"/>
<path d="M68.005 55.3992C68.005 55.7456 67.7249 56.026 67.3792 56.026C67.034 56.026 66.7527 55.7456 66.7527 55.3992C66.7527 55.0537 67.0337 54.7737 67.3792 54.7737C67.7246 54.7737 68.005 55.0534 68.005 55.3992Z" fill="#EDFBFC"/>
<path d="M66.2165 55.3992C66.2165 55.7456 65.9358 56.026 65.5897 56.026C65.2443 56.026 64.9642 55.7456 64.9642 55.3992C64.9642 55.0537 65.244 54.7737 65.5897 54.7737C65.9358 54.7737 66.2165 55.0534 66.2165 55.3992Z" fill="#EDFBFC"/>
<path d="M130.169 103.744L125.724 105.815L116.939 106.433V105.322L124.897 103.723L129.859 101.264L130.169 103.744Z" fill="#AF7BC6"/>
<path d="M128.895 90.1824C130.408 86.4895 134.224 86.5692 136.083 88.0277C137.214 88.9143 138.649 91.9126 136.017 94.678C136.017 94.678 135.248 95.3336 135.844 96.1777C135.844 96.1777 134.763 96.641 134.106 96.0273L128.895 90.1824Z" fill="#272525"/>
<path d="M122.027 120.979L119.371 136.203H117.451L118.35 121.513L122.027 120.979Z" fill="#CC4732"/>
<path d="M118.35 121.513L122.027 120.979L120.35 130.595H117.794L118.35 121.513Z" fill="#B5E0E2"/>
<path d="M134.139 96.021L130.943 96.6319L129.892 94.8769L129.162 94.6273L129.439 93.7531L128.895 90.1826L132.269 90.4624L132.732 92.1472L133.163 92.1448C133.163 92.1448 133.553 91.0547 134.001 91.3025C134.466 91.5599 134.276 92.1959 133.863 92.6766L134.359 93.7999L134.139 96.021Z" fill="#EA5436"/>
<path d="M134.079 95.8604L132.04 96.2495L132.728 99.8549L134.767 99.4657L134.079 95.8604Z" fill="#EA5436"/>
<path d="M134.224 96.6411L132.101 96.5943L132.068 96.4169L134.107 96.0271L134.224 96.6411Z" fill="#CC4732"/>
<path d="M136.322 97.4617L139.149 113.815L132.249 113.235L129.357 102.815L125.288 105.089L116.939 105.815V104.542L124.198 102.623L129.416 98.3033L136.322 97.4617Z" fill="#D497E8"/>
<path d="M139.149 113.815C139.149 113.815 140.718 120.636 135.034 120.711L122.384 120.564L114.33 136.428L112.561 135.681L119.67 116.376L132.249 113.235" fill="#EA5436"/>
<path d="M122.384 120.564L135.034 120.711C140.718 120.636 139.149 113.815 139.149 113.815L132.249 113.236L119.67 116.377L114.992 129.079L117.451 130.281L122.384 120.564Z" fill="#B5E0E2"/>
<path d="M119.371 136.203V139.057H118.949L118.65 137.859L117.9 139.057H113.705C113.705 139.057 116.232 138.658 117.451 136.203H119.371Z" fill="#B5E0E2"/>
<path d="M114.33 136.428L113.221 139.057L112.832 138.893L113.022 137.674L111.865 138.485L108 136.853C108 136.853 110.484 137.469 112.561 135.681L114.33 136.428Z" fill="#B5E0E2"/>
<path d="M116.94 105.815V104.542C116.94 104.542 114.557 104.538 113.761 105.815H116.94Z" fill="#EA5436"/>
<path d="M64.6296 104.88L69.2297 107.651L77.9649 106.513V105.322L69.1264 104.88L64.6296 102.557V104.88Z" fill="#97C4C4"/>
<path d="M66.8036 90.2631L60.2795 94.5626L59.0462 89.6032L59.824 89.6264C59.824 89.6264 59.7368 88.1605 61.7842 87.365C64.0339 86.4914 65.6772 88.1078 66.8036 86.3574C66.8036 86.3574 68.482 88.3196 66.8036 90.2631Z" fill="#272525"/>
<path d="M80.2682 105.815V104.542C80.2682 104.542 82.6505 104.538 83.4466 105.815H80.2682Z" fill="#EA5436"/>
<path d="M53.6584 117.838C53.6584 117.838 55.1442 120.499 57.1873 120.685C59.2298 120.871 72.107 120.066 72.107 120.066L78.2241 138.063H80.4704L74.7681 115.423L61.7461 114.447L57.0636 115.113L53.6584 117.838Z" fill="#2C3C4C"/>
<path d="M63.8729 113.751L77.0593 114.447L78.6682 115.795L75.3819 138.062H73.0268L73.2206 118.039L57.6819 118.518L56.5677 116.723L61.2108 112.576L63.8729 113.751Z" fill="#2C3C4C"/>
<path d="M60.1707 95.8083L64.6457 96.7697L65.5525 94.4531L66.3902 94.6329L66.8036 90.2627L62.7065 90.5694L62.4063 92.2382L61.9039 92.1302C61.9039 92.1302 61.8425 90.8293 61.182 91.1034C60.7503 91.2821 60.5667 92.3656 60.9565 92.8426L60.2795 94.5622L60.1707 95.8083Z" fill="#EA5436"/>
<path d="M61.2887 95.5299L60.545 98.9907L62.9209 99.5013L63.6646 96.0405L61.2887 95.5299Z" fill="#EA5436"/>
<path d="M61.0613 96.5781L63.556 96.536L61.1829 96.0261L61.0613 96.5781Z" fill="#CC4732"/>
<path d="M58.6781 97.4646L53.6584 117.838L63.8729 113.752L65.2961 103.943L69.5767 106.77L80.2682 105.816V104.543L70.8944 103.204L65.2936 98.5761L58.6781 97.4646Z" fill="#B5E0E2"/>
<path d="M79.2727 140H78.2241V138.063H80.4704C80.4704 138.063 82.8633 138.063 84.7196 140H79.2727Z" fill="#2C3C4C"/>
<path d="M74.0753 140H73.0268V138.063H75.273C75.273 138.063 77.6653 138.063 79.5217 140H74.0753Z" fill="#2C3C4C"/>
<path d="M51.0807 104.879H52.7488L53.3064 120.772L52.5054 120.81L51.0807 104.879Z" fill="#DCE5E3"/>
<path d="M67.6617 120.094L67.1732 121.526H52.5054V120.81L67.6617 120.094Z" fill="#DCE5E3"/>
<path d="M52.8108 121.526L47.673 139.665H48.2921L54.0492 121.526H52.8108Z" fill="#C2C6C5"/>
<path d="M66.2137 121.526L71.3518 139.665H70.7325L64.9757 121.526H66.2137Z" fill="#C2C6C5"/>
<path d="M142.052 104.879H140.384L139.826 120.772L140.628 120.81L142.052 104.879Z" fill="#DCE5E3"/>
<path d="M125.471 120.094L125.959 121.526H140.628V120.81L125.471 120.094Z" fill="#DCE5E3"/>
<path d="M140.322 121.526L145.46 139.665H144.841L139.084 121.526H140.322Z" fill="#C2C6C5"/>
<path d="M126.919 121.526L121.781 139.665H122.4L128.157 121.526H126.919Z" fill="#C2C6C5"/>
<path d="M73.7615 107.226L74.1026 108.897H127.744L128.116 107.226H73.7615Z" fill="#DCE5E3"/>
<path d="M76.7957 108.897L70.6047 139.665H71.4402L78.4049 108.897H76.7957Z" fill="#C2C6C5"/>
<path d="M126.733 108.897L132.924 139.665H132.088L125.123 108.897H126.733Z" fill="#C2C6C5"/>
<path d="M75.7829 107.226L76.2052 105.815H87.7954V107.226H75.7829Z" fill="#2C3C4C"/>
<path d="M87.7954 107.226L91.2164 97.4619H89.636L86.8409 105.815L87.7954 107.226Z" fill="#2C3C4C"/>
<path d="M122.577 107.226L122.154 105.815H110.564V107.226H122.577Z" fill="#2C3C4C"/>
<path d="M110.564 107.226L108.416 97.4619H109.997L111.519 105.815L110.564 107.226Z" fill="#2C3C4C"/>
<path d="M109.906 103.434H106.995V107.211H109.906V103.434Z" fill="#EA5436"/>
<path d="M107.278 106.383C107.227 106.355 106.025 105.69 105.82 104.869C105.751 104.596 105.796 104.337 105.951 104.099C106.335 103.51 107.101 103.693 107.452 103.872L107.284 104.203C107.254 104.189 106.561 103.846 106.262 104.302C106.165 104.451 106.137 104.607 106.18 104.777C106.318 105.329 107.148 105.888 107.457 106.057L107.278 106.383Z" fill="#EA5436"/>
<path d="M91.2428 103.434H88.3326V107.211H91.2428V103.434Z" fill="#EA5436"/>
<path d="M103.12 105.815H95.1385V107.21H103.12V105.815Z" fill="#B4CACC"/>
<path d="M104.02 104.42H96.0385V105.815H104.02V104.42Z" fill="#C1D8DB"/>
<path d="M101.686 103.025H93.7051V104.42H101.686V103.025Z" fill="#B4CACC"/>
<path d="M139.212 73.2634L133.166 79.3076L135.162 81.3045L141.208 75.2603L139.212 73.2634Z" fill="#C1D8DB"/>
<path d="M140.34 72.1338L139.648 72.8252L141.645 74.822L142.337 74.1306L140.34 72.1338Z" fill="#D0E6EA"/>
<path d="M132.736 79.74L134.732 81.7366L132.169 82.3038L132.736 79.74Z" fill="#D0E6EA"/>
<path d="M114.879 21.728H98.9614V31.339H114.879V21.728Z" fill="#C1D8DB"/>
<path d="M113.485 29.9425L106.92 31.0788L100.356 29.9425V20L106.92 20.8525L113.485 20V29.9425Z" fill="#D0E6EA"/>
<path d="M105.858 22.8287L101.645 22.2016V21.728L105.858 22.3554V22.8287Z" fill="#EDFBFC"/>
<path d="M105.858 24.3437L101.645 23.7163V23.2434L105.858 23.8702V24.3437Z" fill="#EDFBFC"/>
<path d="M105.858 25.8589L101.645 25.2315V24.7583L105.858 25.3851V25.8589Z" fill="#EDFBFC"/>
<path d="M105.858 27.3738L101.645 26.7464V26.2732L105.858 26.9006V27.3738Z" fill="#EDFBFC"/>
<path d="M105.858 28.8882L101.645 28.2608V27.7876L105.858 28.415V28.8882Z" fill="#EDFBFC"/>
<path d="M107.983 22.8287L112.197 22.2016V21.728L107.983 22.3554V22.8287Z" fill="#EDFBFC"/>
<path d="M107.983 24.3437L112.197 23.7163V23.2434L107.983 23.8702V24.3437Z" fill="#EDFBFC"/>
<path d="M107.983 25.8589L112.197 25.2315V24.7583L107.983 25.3851V25.8589Z" fill="#EDFBFC"/>
<path d="M107.983 27.3738L112.197 26.7464V26.2732L107.983 26.9006V27.3738Z" fill="#EDFBFC"/>
<path d="M107.983 28.8882L112.197 28.2608V27.7876L107.983 28.415V28.8882Z" fill="#EDFBFC"/>
<path d="M59.5288 38.5664L56.5428 41.5542L57.0304 42.0415L60.0165 39.0538L59.5288 38.5664Z" fill="#D0E6EA"/>
<path d="M59.6193 33.1218C61.2297 31.5107 63.8512 31.5107 65.4607 33.1206C67.0724 34.731 67.0724 37.3519 65.462 38.963C63.8527 40.5737 61.2319 40.5737 59.6208 38.963C58.01 37.3537 58.0088 34.7323 59.6193 33.1218ZM60.5912 34.0937C59.5169 35.168 59.5172 36.9165 60.5921 37.9907C61.6667 39.065 63.4149 39.065 64.4894 37.9913C65.5643 36.9146 65.5637 35.1674 64.4888 34.0937C63.4152 33.0179 61.6658 33.0179 60.5912 34.0937Z" fill="#C1D8DB"/>
<path d="M56.9781 40.6335L53.5457 44.0679L54.5183 45.0399L57.9507 41.6056L56.9781 40.6335Z" fill="#C1D8DB"/>
<path d="M143.763 28.0269C143.679 28.2195 143.561 28.4108 143.396 28.5808C143.112 28.8828 142.748 29.067 142.429 29.1145C142.108 29.1728 141.853 29.0881 141.714 29.0236C141.871 28.9814 142.104 28.9672 142.36 28.8583C142.617 28.7594 142.891 28.5798 143.13 28.3274C143.339 28.1112 143.488 27.8681 143.587 27.6398C143.525 26.9579 142.843 25.8433 141.534 26.1658C141.534 25.3108 140.184 24.8159 139.644 25.3108C139.509 24.2759 137.619 24.4558 137.079 25.0857C137.061 24.3628 135.459 24.0282 134.874 24.8159C134.154 24.5457 132.983 24.8159 132.983 25.8957C132.264 25.4677 130.599 26.2781 131.229 27.606C129.856 27.4708 129.519 29.766 130.463 30.1711C129.549 30.6077 130.076 32.2886 131.03 32.3838C131.097 32.216 131.192 32.0467 131.322 31.891C131.571 31.5768 131.922 31.3976 132.215 31.33C132.514 31.2602 132.758 31.3005 132.9 31.3483C132.757 31.4081 132.539 31.4624 132.302 31.5803C132.067 31.6987 131.809 31.869 131.605 32.1258C131.449 32.3118 131.337 32.5128 131.252 32.7066C131.243 33.1399 131.3 33.9083 131.746 34.4458C132.215 35.0118 133.636 35.9489 134.469 34.9184C135.427 33.7322 136.809 33.5688 138.744 33.5461C139.738 33.5343 140.198 33.0561 140.41 32.6542C140.433 32.4539 140.447 32.2476 140.433 32.0368C140.411 31.9133 140.415 31.7843 140.378 31.6711C140.339 31.5604 140.321 31.4416 140.272 31.3412C140.177 31.1393 140.047 30.9473 139.921 30.7882C139.67 30.4632 139.421 30.2402 139.216 30.1484C139.447 30.1317 139.798 30.301 140.118 30.6096C140.281 30.764 140.44 30.9473 140.577 31.188C140.645 31.3067 140.677 31.4454 140.728 31.5812C140.775 31.7183 140.776 31.8646 140.8 32.0107C140.803 32.0671 140.804 32.1217 140.804 32.1766C141.895 32.4585 143.229 31.7282 143.829 30.8909C144.33 30.1912 144.784 28.4344 143.763 28.0269ZM135.941 27.9993C135.996 27.669 136.18 27.2816 136.505 26.9793C136.833 26.6803 137.237 26.5336 137.571 26.5082C137.908 26.4794 138.169 26.5662 138.316 26.6381C138.149 26.6719 137.901 26.6834 137.618 26.7693C137.336 26.8531 137.024 27.006 136.754 27.2506C136.488 27.5003 136.305 27.7952 136.197 28.0697C136.086 28.3447 136.05 28.5913 135.998 28.7535C135.943 28.5994 135.882 28.3317 135.941 27.9993ZM132.682 28.3038C132.544 28.586 132.517 28.8502 132.466 29.0236C132.41 28.8617 132.339 28.5711 132.431 28.2167C132.514 27.8644 132.767 27.4736 133.155 27.2057C133.423 27.0196 133.724 26.9238 134.002 26.8934C133.98 26.7901 133.972 26.6583 134.007 26.5057C134.054 26.2843 134.191 26.0272 134.423 25.8312C134.655 25.6355 134.948 25.5524 135.181 25.5664C135.417 25.5781 135.581 25.6808 135.662 25.7608C135.543 25.7816 135.381 25.7813 135.203 25.8309C135.026 25.8796 134.834 25.9686 134.659 26.1147C134.485 26.2623 134.351 26.4353 134.256 26.5994C134.194 26.703 134.149 26.7997 134.109 26.8847C134.194 26.8804 134.277 26.8813 134.355 26.8897C134.718 26.9244 134.971 27.0853 135.099 27.201C134.92 27.1805 134.663 27.1238 134.351 27.1551C134.043 27.1849 133.684 27.2888 133.363 27.5099C133.043 27.7319 132.811 28.021 132.682 28.3038ZM135.133 33.2261C134.844 33.3821 134.435 33.4611 134.014 33.3911C133.594 33.3148 133.238 33.1042 133.014 32.8676C132.786 32.63 132.695 32.3754 132.669 32.2185C132.793 32.3283 132.95 32.5081 133.187 32.6663C133.422 32.8251 133.728 32.964 134.077 33.0276C134.427 33.0843 134.76 33.0571 135.032 32.9801C135.307 32.9057 135.509 32.7798 135.661 32.7138C135.588 32.8539 135.427 33.0723 135.133 33.2261ZM137.345 29.2801C137.041 29.6643 136.526 30.0036 135.909 30.1335C135.817 30.3404 135.697 30.6167 135.599 30.9439C135.459 31.3948 135.437 31.7679 135.458 31.9936C135.362 31.9391 135.247 31.7862 135.203 31.5719C135.156 31.3591 135.168 31.0971 135.246 30.8388C135.328 30.5609 135.471 30.3342 135.622 30.1751C134.941 30.2266 134.298 29.9797 133.917 29.61C133.508 29.2261 133.4 28.7789 133.343 28.5287C133.502 28.7451 133.689 29.1207 134.088 29.4075C134.477 29.6956 135.048 29.8684 135.66 29.8054C136.27 29.7254 136.799 29.4429 137.147 29.1021C137.506 28.7612 137.665 28.3792 137.799 28.1463C137.77 28.4027 137.694 28.8502 137.345 29.2801ZM139.539 29.4776C139.3 29.5986 139.038 29.7778 138.83 30.025C138.63 30.2771 138.53 30.5612 138.522 30.8192C138.504 31.08 138.574 31.2977 138.587 31.454C138.48 31.3505 138.312 31.1554 138.257 30.8397C138.191 30.5302 138.284 30.1134 138.544 29.7936C138.809 29.4776 139.155 29.3002 139.449 29.2286C139.746 29.1548 139.994 29.1849 140.139 29.2267C139.997 29.2922 139.78 29.3542 139.539 29.4776ZM140.648 28.0387C140.233 28.0197 139.862 27.8405 139.633 27.6197C139.398 27.3976 139.312 27.1486 139.284 26.9985C139.408 27.1005 139.562 27.273 139.796 27.41C140.027 27.5474 140.327 27.6541 140.667 27.6712C141.005 27.6845 141.324 27.6203 141.583 27.5257C141.844 27.4324 142.039 27.3093 142.187 27.2457C142.117 27.3837 141.969 27.5933 141.702 27.763C141.439 27.9329 141.062 28.0566 140.648 28.0387ZM142.643 30.2849C142.508 30.3298 142.365 30.4015 142.231 30.5128C141.959 30.7352 141.824 31.0394 141.714 31.2044C141.666 31.1207 141.628 30.9706 141.663 30.786C141.696 30.6031 141.805 30.3903 141.996 30.2297C142.187 30.0684 142.43 30.0027 142.621 30.0197C142.815 30.0355 142.947 30.128 143.007 30.2018C142.908 30.2291 142.78 30.2393 142.643 30.2849Z" fill="#C1D8DB"/>
<path d="M85.0322 36.0868C85.0322 38.5597 83.0273 40.5646 80.5547 40.5646C78.0818 40.5646 76.0771 38.5597 76.0771 36.0868C76.0771 33.6142 78.0818 31.6099 80.5547 31.6099C83.0273 31.6099 85.0322 33.6145 85.0322 36.0868Z" fill="#C1D8DB"/>
<path d="M82.2191 38.2678H78.89V41.5973H82.2191V38.2678Z" fill="#C1D8DB"/>
<path d="M82.2191 41.9414H78.89V42.9174H82.2191V41.9414Z" fill="#D0E6EA"/>
<path d="M82.2191 43.2617H78.89V43.7492H82.2191V43.2617Z" fill="#D0E6EA"/>
<path d="M80.9358 38.6414H80.2759V41.5978H80.9358V38.6414Z" fill="#EDFBFC"/>
<path d="M80.5305 39.3508L78.8658 36.3376L79.0162 36.2539L80.6812 39.2671L80.5305 39.3508Z" fill="#EDFBFC"/>
<path d="M80.6812 39.3508L80.5305 39.2671L82.1956 36.2539L82.3463 36.3376L80.6812 39.3508Z" fill="#EDFBFC"/>
<path d="M80.2858 37.1217L79.9372 36.2217L79.8014 36.6903L78.9247 36.3355L78.9569 36.2555L79.7456 36.574L79.9258 35.9522L80.2657 36.8311L80.6065 35.3794L80.6477 35.5602C80.742 35.9705 80.8738 36.5405 80.9383 36.81C81.0248 36.5064 81.2109 35.8917 81.2779 35.8917H81.3213L81.3235 35.9432C81.3235 36.0241 81.4175 36.3371 81.4668 36.4927L82.2588 36.2536L82.2836 36.3367L81.4109 36.5997L81.3973 36.5591C81.3852 36.5213 81.3018 36.262 81.2608 36.0843C81.1675 36.3476 80.9864 36.9399 80.9789 36.9818V37.0199H80.9411C80.9278 37.0212 80.9172 37.023 80.9002 36.9765H80.8934C80.8934 36.9759 80.8943 36.9722 80.8961 36.9654C80.8605 36.8627 80.7929 36.5721 80.6062 35.7602L80.2858 37.1217Z" fill="#EDFBFC"/>
<path d="M42.1848 68.8375L41.9312 68.8408L41.9718 71.9408L42.2255 71.9375L42.1848 68.8375Z" fill="#B4CACC"/>
<path d="M42.8147 73.4334L41.4194 73.4526L42.0918 71.5398L42.8147 73.4334Z" fill="#B4CACC"/>
<path d="M45.8194 73.8356C45.8319 74.8038 48.0936 75.558 50.8698 75.5208C53.6472 75.4845 55.8876 74.6695 55.8749 73.7019C55.8621 72.735 53.6007 71.9808 50.8236 72.0177C48.0464 72.0546 45.8061 72.8689 45.8194 73.8356Z" fill="#B4CACC"/>
<path d="M55.7963 68.0494L45.7409 68.1831L45.8164 73.8547L55.8717 73.7209L55.7963 68.0494Z" fill="#B4CACC"/>
<path d="M50.8208 71.8246L59.6304 68.6077L50.7386 65.6252L41.9286 68.8428L50.8208 71.8246Z" fill="#D0E6EA"/>
<path d="M80.3776 78.6748V94.5624L85.1523 99.3367" stroke="#B4CACC" stroke-miterlimit="10"/>
<path d="M122.099 65.6323V93.2965L116.232 99.1634" stroke="#B4CACC" stroke-miterlimit="10"/>
<path d="M50.7795 68.7247L55.4661 64.0378H68.8194" stroke="#B4CACC" stroke-miterlimit="10"/>
<path d="M62.4963 36.042V47.6908L73.8951 59.0894" stroke="#B4CACC" stroke-miterlimit="10"/>
<path d="M87.8882 58.3469V42.9174L82.9982 38.0273" stroke="#B4CACC" stroke-miterlimit="10"/>
<path d="M105.131 31.0789V36.7305L112.791 44.3906" stroke="#B4CACC" stroke-miterlimit="10"/>
<path d="M139.154 32.4712V38.1458L132.864 44.4354" stroke="#B4CACC" stroke-miterlimit="10"/>
<path d="M137.189 77.2845L132.136 72.2316V64.9487" stroke="#B4CACC" stroke-miterlimit="10"/>
</g>
<defs>
<filter id="filter0_d_138_3625" x="-3" y="0" width="200" height="200" filterUnits="userSpaceOnUse" color-interpolation-filters="sRGB">
<feFlood flood-opacity="0" result="BackgroundImageFix"/>
<feColorMatrix in="SourceAlpha" type="matrix" values="0 0 0 0 0 0 0 0 0 0 0 0 0 0 0 0 0 0 127 0" result="hardAlpha"/>
<feOffset dy="20"/>
<feGaussianBlur stdDeviation="20"/>
<feComposite in2="hardAlpha" operator="out"/>
<feColorMatrix type="matrix" values="0 0 0 0 0.196078 0 0 0 0 0.231373 0 0 0 0 0.309804 0 0 0 0.1 0"/>
<feBlend mode="normal" in2="BackgroundImageFix" result="effect1_dropShadow_138_3625"/>
<feBlend mode="normal" in="SourceGraphic" in2="effect1_dropShadow_138_3625" result="shape"/>
</filter>
</defs>
</svg>
