<svg width="25" height="26" viewBox="0 0 25 26" fill="none" xmlns="http://www.w3.org/2000/svg">
<path d="M24.8723 24.7515C24.8723 25.0167 24.767 25.271 24.5794 25.4586C24.3919 25.6461 24.1375 25.7515 23.8723 25.7515H1.87231C1.6071 25.7515 1.35274 25.6461 1.16521 25.4586C0.977671 25.271 0.872314 25.0167 0.872314 24.7515C0.872314 24.4862 0.977671 24.2319 1.16521 24.0444C1.35274 23.8568 1.6071 23.7515 1.87231 23.7515H23.8723C24.1375 23.7515 24.3919 23.8568 24.5794 24.0444C24.767 24.2319 24.8723 24.4862 24.8723 24.7515ZM13.8723 19.7515V7.75146C13.8723 7.22103 14.083 6.71232 14.4581 6.33725C14.8332 5.96218 15.3419 5.75146 15.8723 5.75146H20.8723C21.4027 5.75146 21.9115 5.96218 22.2865 6.33725C22.6616 6.71232 22.8723 7.22103 22.8723 7.75146V19.7515C22.8723 20.2819 22.6616 20.7906 22.2865 21.1657C21.9115 21.5408 21.4027 21.7515 20.8723 21.7515H15.8723C15.3419 21.7515 14.8332 21.5408 14.4581 21.1657C14.083 20.7906 13.8723 20.2819 13.8723 19.7515ZM15.8723 19.7515H20.8723V7.75146H15.8723V19.7515ZM2.87231 19.7515V2.75146C2.87231 2.22103 3.08303 1.71232 3.4581 1.33725C3.83317 0.962178 4.34188 0.751465 4.87231 0.751465H9.87231C10.4027 0.751465 10.9115 0.962178 11.2865 1.33725C11.6616 1.71232 11.8723 2.22103 11.8723 2.75146V19.7515C11.8723 20.2819 11.6616 20.7906 11.2865 21.1657C10.9115 21.5408 10.4027 21.7515 9.87231 21.7515H4.87231C4.34188 21.7515 3.83317 21.5408 3.4581 21.1657C3.08303 20.7906 2.87231 20.2819 2.87231 19.7515ZM4.87231 19.7515H9.87231V2.75146H4.87231V19.7515Z" fill="#0074D9"/>
</svg>
