<svg width="49" height="48" viewBox="0 0 49 48" fill="none" xmlns="http://www.w3.org/2000/svg">
<rect x="0.581421" width="48" height="48" rx="5" fill="#007C66" fill-opacity="0.05"/>
<path d="M34.929 12.9063L18.6477 10.0313C18.1254 9.93934 17.588 10.0586 17.1536 10.3629C16.7193 10.6672 16.4235 11.1315 16.3315 11.6538L12.6127 32.7788C12.5672 33.0375 12.5732 33.3028 12.6302 33.5593C12.6873 33.8158 12.7943 34.0585 12.9453 34.2736C13.0962 34.4887 13.288 34.672 13.5098 34.8129C13.7315 34.9538 13.9789 35.0497 14.2377 35.095L30.519 37.97C30.7778 38.0157 31.0432 38.0098 31.2998 37.9529C31.5565 37.8959 31.7994 37.7889 32.0146 37.638C32.2298 37.487 32.4132 37.2952 32.5542 37.0733C32.6953 36.8514 32.7912 36.604 32.8365 36.345L36.5552 15.22C36.6463 14.6975 36.5262 14.1603 36.2212 13.7264C35.9162 13.2925 35.4514 12.9975 34.929 12.9063ZM30.864 36L14.5815 33.125L18.3002 12L34.5815 14.875L30.864 36ZM19.749 15.3025C19.7953 15.0415 19.9434 14.8095 20.1606 14.6576C20.3779 14.5057 20.6466 14.4463 20.9077 14.4925L31.2827 16.3238C31.5293 16.3669 31.7507 16.501 31.9032 16.6996C32.0557 16.8981 32.1282 17.1466 32.1064 17.3959C32.0845 17.6453 31.97 17.8774 31.7853 18.0464C31.6006 18.2155 31.3593 18.3091 31.109 18.3088C31.0503 18.3087 30.9918 18.3037 30.934 18.2938L20.559 16.4613C20.2979 16.4149 20.066 16.2668 19.9141 16.0496C19.7622 15.8323 19.7028 15.5636 19.749 15.3025ZM19.0565 19.2425C19.0793 19.1131 19.1273 18.9895 19.1979 18.8787C19.2685 18.768 19.3602 18.6722 19.4678 18.5968C19.5754 18.5215 19.6968 18.4681 19.825 18.4397C19.9533 18.4113 20.0859 18.4084 20.2152 18.4313L30.5902 20.2638C30.8385 20.3053 31.062 20.4389 31.2161 20.638C31.3702 20.8371 31.4435 21.087 31.4214 21.3378C31.3993 21.5886 31.2834 21.8218 31.0969 21.9909C30.9104 22.16 30.667 22.2525 30.4152 22.25C30.3561 22.2501 30.2971 22.2447 30.239 22.2338L19.864 20.4025C19.6031 20.3556 19.3716 20.2071 19.2202 19.9896C19.0688 19.7721 19.0099 19.5034 19.0565 19.2425ZM18.3627 23.1813C18.4099 22.9209 18.5583 22.6899 18.7755 22.5388C18.9927 22.3876 19.2609 22.3288 19.5215 22.375L24.7065 23.2863C24.9529 23.3294 25.1743 23.4634 25.3267 23.6618C25.4792 23.8602 25.5518 24.1085 25.5302 24.3578C25.5085 24.6071 25.3942 24.8392 25.2097 25.0083C25.0253 25.1774 24.7842 25.2712 24.534 25.2713C24.4753 25.2712 24.4168 25.2662 24.359 25.2563L19.1715 24.34C18.9107 24.2934 18.679 24.1452 18.5274 23.9279C18.3757 23.7107 18.3165 23.4421 18.3627 23.1813Z" fill="#007C66"/>
</svg>
