<svg width="49" height="48" viewBox="0 0 49 48" fill="none" xmlns="http://www.w3.org/2000/svg">
<rect x="0.581421" width="48" height="48" rx="5" fill="#0074D9" fill-opacity="0.05"/>
<path d="M35.5814 15H30.5814V14C30.5814 13.2044 30.2654 12.4413 29.7027 11.8787C29.1401 11.3161 28.3771 11 27.5814 11H21.5814C20.7858 11 20.0227 11.3161 19.4601 11.8787C18.8975 12.4413 18.5814 13.2044 18.5814 14V15H13.5814C13.051 15 12.5423 15.2107 12.1672 15.5858C11.7921 15.9609 11.5814 16.4696 11.5814 17V33C11.5814 33.5304 11.7921 34.0391 12.1672 34.4142C12.5423 34.7893 13.051 35 13.5814 35H35.5814C36.1119 35 36.6206 34.7893 36.9956 34.4142C37.3707 34.0391 37.5814 33.5304 37.5814 33V17C37.5814 16.4696 37.3707 15.9609 36.9956 15.5858C36.6206 15.2107 36.1119 15 35.5814 15ZM20.5814 14C20.5814 13.7348 20.6868 13.4804 20.8743 13.2929C21.0619 13.1054 21.3162 13 21.5814 13H27.5814C27.8466 13 28.101 13.1054 28.2885 13.2929C28.4761 13.4804 28.5814 13.7348 28.5814 14V15H20.5814V14ZM35.5814 17V22.2013C32.2061 24.0385 28.4243 25.0007 24.5814 25C20.7387 25.0007 16.9569 24.0389 13.5814 22.2025V17H35.5814ZM35.5814 33H13.5814V24.455C17.0063 26.1302 20.7688 27.0007 24.5814 27C28.3942 27.0001 32.1565 26.1292 35.5814 24.4538V33ZM21.5814 22C21.5814 21.7348 21.6868 21.4804 21.8743 21.2929C22.0619 21.1054 22.3162 21 22.5814 21H26.5814C26.8466 21 27.101 21.1054 27.2885 21.2929C27.4761 21.4804 27.5814 21.7348 27.5814 22C27.5814 22.2652 27.4761 22.5196 27.2885 22.7071C27.101 22.8946 26.8466 23 26.5814 23H22.5814C22.3162 23 22.0619 22.8946 21.8743 22.7071C21.6868 22.5196 21.5814 22.2652 21.5814 22Z" fill="#0074D9"/>
</svg>
