<svg width="31" height="23" viewBox="0 0 31 23" fill="none" xmlns="http://www.w3.org/2000/svg">
<path d="M30.3831 13.2487C30.3831 13.5139 30.2777 13.7682 30.0902 13.9558C29.9026 14.1433 29.6483 14.2487 29.3831 14.2487H27.3831V16.2487C27.3831 16.5139 27.2777 16.7682 27.0902 16.9558C26.9026 17.1433 26.6483 17.2487 26.3831 17.2487C26.1179 17.2487 25.8635 17.1433 25.676 16.9558C25.4884 16.7682 25.3831 16.5139 25.3831 16.2487V14.2487H23.3831C23.1179 14.2487 22.8635 14.1433 22.676 13.9558C22.4884 13.7682 22.3831 13.5139 22.3831 13.2487C22.3831 12.9834 22.4884 12.7291 22.676 12.5415C22.8635 12.354 23.1179 12.2487 23.3831 12.2487H25.3831V10.2487C25.3831 9.98343 25.4884 9.72908 25.676 9.54154C25.8635 9.35401 26.1179 9.24865 26.3831 9.24865C26.6483 9.24865 26.9026 9.35401 27.0902 9.54154C27.2777 9.72908 27.3831 9.98343 27.3831 10.2487V12.2487H29.3831C29.6483 12.2487 29.9026 12.354 30.0902 12.5415C30.2777 12.7291 30.3831 12.9834 30.3831 13.2487ZM23.1493 20.6049C23.3201 20.8081 23.4031 21.0708 23.3801 21.3353C23.3571 21.5997 23.23 21.8442 23.0268 22.0149C22.8236 22.1856 22.5609 22.2686 22.2964 22.2457C22.032 22.2227 21.7875 22.0956 21.6168 21.8924C19.1018 18.8974 15.6443 17.2487 11.8831 17.2487C8.12182 17.2487 4.66432 18.8974 2.14932 21.8924C1.97858 22.0955 1.73418 22.2224 1.46987 22.2452C1.20556 22.2681 0.942999 22.185 0.739943 22.0143C0.536886 21.8435 0.40997 21.5991 0.387114 21.3348C0.364258 21.0705 0.447335 20.808 0.618068 20.6049C2.48557 18.3824 4.80807 16.8036 7.38932 15.9587C5.8217 14.9823 4.61472 13.5219 3.95099 11.7985C3.28725 10.0751 3.20288 8.18237 3.71063 6.40672C4.21838 4.63107 5.29063 3.06911 6.76515 1.95712C8.23968 0.845143 10.0363 0.243652 11.8831 0.243652C13.7299 0.243652 15.5265 0.845143 17.001 1.95712C18.4755 3.06911 19.5478 4.63107 20.0555 6.40672C20.5633 8.18237 20.4789 10.0751 19.8152 11.7985C19.1514 13.5219 17.9444 14.9823 16.3768 15.9587C18.9581 16.8036 21.2806 18.3824 23.1493 20.6049ZM11.8831 15.2487C13.1686 15.2487 14.4254 14.8674 15.4943 14.1532C16.5632 13.439 17.3963 12.4238 17.8883 11.2361C18.3803 10.0484 18.509 8.74144 18.2582 7.48056C18.0074 6.21969 17.3883 5.0615 16.4793 4.15246C15.5702 3.24342 14.412 2.62435 13.1512 2.37355C11.8903 2.12274 10.5833 2.25146 9.39563 2.74343C8.20791 3.2354 7.19274 4.06853 6.47852 5.13745C5.76429 6.20637 5.38307 7.46307 5.38307 8.74865C5.38505 10.4719 6.07051 12.1241 7.28907 13.3427C8.50762 14.5612 10.1598 15.2467 11.8831 15.2487Z" fill="#0074D9"/>
</svg>
